<svg version="1.1" id="Layer_1" xmlns="http://www.w3.org/2000/svg" xmlns:xlink="http://www.w3.org/1999/xlink" x="0px" y="0px"
	 width="100%" viewBox="0 0 1024 1024" enable-background="new 0 0 1024 1024" xml:space="preserve">
<path fill="#000000" opacity="1.000000" stroke="none" 
	d="
M227.749619,520.132996 
	C220.154938,499.384949 212.691101,479.005371 204.869247,457.648285 
	C215.232925,457.648285 224.347046,457.647705 233.461151,457.648407 
	C247.213867,457.649475 247.169098,457.665375 251.716583,470.811646 
	C266.676544,514.059326 281.669189,557.295776 296.663940,600.531372 
	C297.256683,602.240540 297.998901,603.897827 299.180786,606.852539 
	C300.633514,602.787537 301.739990,599.782227 302.784332,596.755493 
	C317.984680,552.701050 333.267792,508.674652 348.251312,464.546539 
	C350.052063,459.243134 352.457336,457.199768 358.151337,457.513428 
	C367.452148,458.025818 376.801849,457.638428 386.130829,457.662201 
	C387.937378,457.666809 389.796844,457.424408 391.502533,458.294922 
	C392.246765,460.290558 391.248657,461.940857 390.636475,463.609222 
	C368.561554,523.769836 346.426727,583.908508 324.467590,644.111328 
	C323.023651,648.070068 321.134155,649.528992 316.934204,649.438782 
	C304.945221,649.181213 292.942474,649.152466 280.955139,649.443848 
	C276.506378,649.552063 274.540924,647.904724 273.059326,643.826965 
	C258.108521,602.678894 242.967819,561.599915 227.749619,520.132996 
z"/>
<path fill="#000000" opacity="1.000000" stroke="none" 
	d="
M430.929932,486.736694 
	C434.185181,488.455597 437.065857,490.055817 440.029755,491.702271 
	C441.772125,490.192932 440.383667,486.548187 443.468140,486.217957 
	C447.920044,485.741364 452.438721,485.362701 456.839020,486.552399 
	C458.396942,486.973602 458.274811,488.648560 458.275940,489.966125 
	C458.291962,508.441925 458.259216,526.917786 458.313019,545.393494 
	C458.321991,548.474731 456.866608,549.504456 454.003662,549.356384 
	C451.845856,549.244873 449.653076,549.139832 447.518341,549.391846 
	C443.109863,549.912292 440.287842,548.733521 440.818726,542.927429 
	C435.104889,546.862915 429.871704,550.174133 423.259796,550.372437 
	C410.121460,550.766418 400.807098,544.985718 395.478577,533.174683 
	C390.375549,521.863586 390.881348,510.393158 396.737671,499.505035 
	C403.310028,487.285614 416.723999,482.395111 430.929932,486.736694 
M416.586243,502.969910 
	C408.783051,509.333374 407.409332,522.726685 414.075470,530.194519 
	C417.948730,534.533630 422.937927,536.609070 428.873077,535.039368 
	C438.694916,532.441650 443.756317,521.391235 440.141541,510.911804 
	C437.545715,503.386353 427.551605,496.660828 416.586243,502.969910 
z"/>
<path fill="#000000" opacity="1.000000" stroke="none" 
	d="
M718.882080,622.211914 
	C714.907654,622.341248 716.066162,624.677368 716.678955,626.443481 
	C719.520630,634.633667 732.382385,638.184875 738.304871,631.713501 
	C744.733948,624.688477 752.011780,628.829102 759.851929,627.263672 
	C756.814636,637.884949 750.700989,644.014648 741.897522,647.348328 
	C719.960938,655.655334 699.272827,640.917297 698.512024,617.551147 
	C697.637390,590.685486 720.952576,579.125244 741.054871,585.674255 
	C754.692200,590.117126 763.426147,604.541138 761.181030,618.691528 
	C760.615601,622.255493 758.318787,622.220947 755.734192,622.218811 
	C743.581848,622.208557 731.429504,622.209412 718.882080,622.211914 
M734.384888,609.943237 
	C737.151062,609.740234 739.993530,610.474426 742.680664,609.373840 
	C742.527100,603.050537 738.147400,598.846375 731.201843,598.252075 
	C724.492432,597.677979 717.573914,601.889404 716.628723,607.050171 
	C716.177002,609.516541 717.689636,609.904419 719.508667,609.921753 
	C724.145691,609.965637 728.783264,609.939392 734.384888,609.943237 
z"/>
<path fill="#000000" opacity="1.000000" stroke="none" 
	d="
M446.958801,639.932434 
	C436.567749,650.065918 420.583862,652.374512 408.392090,645.724243 
	C395.821625,638.867249 389.761902,623.979797 393.128540,608.224426 
	C396.577728,592.082581 411.792725,581.711243 428.175049,584.078125 
	C447.707611,586.900024 455.861511,601.160767 455.264343,617.623718 
	C455.122894,621.522522 452.982208,622.247253 449.715363,622.226624 
	C438.390442,622.154907 427.064636,622.163086 415.739624,622.225769 
	C414.008270,622.235352 411.778992,621.429260 410.713684,623.403809 
	C409.619965,625.431213 411.062012,627.269470 412.117584,628.921265 
	C416.164429,635.254150 426.551300,637.480774 431.800018,631.980164 
	C436.105560,627.467957 440.624634,627.466675 445.726105,627.643799 
	C448.143188,627.727722 450.687500,626.974609 453.198029,628.506165 
	C452.565704,632.995667 450.246429,636.519409 446.958801,639.932434 
M418.782806,599.002930 
	C414.119293,600.749207 411.111481,603.794556 410.442108,609.584961 
	C419.659912,610.132812 428.405090,610.247681 437.247223,609.512573 
	C435.794128,600.647583 429.546112,597.056824 418.782806,599.002930 
z"/>
<path fill="#000000" opacity="1.000000" stroke="none" 
	d="
M625.758545,537.252319 
	C629.151611,541.094666 632.302490,544.678894 636.233032,549.150085 
	C628.588745,549.150085 622.047668,549.237854 615.511841,549.092957 
	C613.707458,549.052917 612.883728,547.223389 611.852295,545.936096 
	C606.350586,539.069885 600.845764,532.206116 594.257874,525.512695 
	C594.257874,531.371765 594.013611,537.244202 594.335205,543.085571 
	C594.592224,547.753418 593.180481,549.609558 588.215576,549.435242 
	C576.192627,549.013184 577.664124,550.780273 577.624878,538.668274 
	C577.552063,516.198914 577.675293,493.728699 577.543030,471.259888 
	C577.518188,467.035980 578.144043,465.069427 583.267212,465.312500 
	C594.249756,465.833557 594.273682,465.466095 594.282166,476.525177 
	C594.290527,487.480194 594.283997,498.435211 594.283997,510.174194 
	C598.413818,507.416870 600.200623,503.594971 602.913818,500.653351 
	C604.150879,499.312134 605.503967,497.943268 606.281250,496.334229 
	C611.935120,484.629364 622.246643,485.179962 632.730408,486.103912 
	C633.048035,486.131897 633.377747,486.272247 633.654846,486.438538 
	C633.928955,486.603027 634.143555,486.866852 634.948547,487.603455 
	C630.331909,492.968536 625.746887,498.339874 621.111877,503.667725 
	C618.163696,507.056580 615.263611,510.501312 612.115112,513.697571 
	C609.408081,516.445740 609.059265,518.754211 611.884094,521.728088 
	C616.580322,526.672241 620.987366,531.891052 625.758545,537.252319 
z"/>
<path fill="#000000" opacity="1.000000" stroke="none" 
	d="
M625.755188,608.995605 
	C625.758728,602.339294 625.886353,596.178589 625.719482,590.025818 
	C625.623413,586.482178 626.838196,584.843262 630.559631,584.841003 
	C645.520752,584.832031 643.082703,583.830811 643.174561,596.679504 
	C643.282715,611.822571 643.064819,626.968872 643.278320,642.109741 
	C643.345581,646.879395 641.708679,648.906860 636.922546,648.345459 
	C635.280823,648.152832 633.597778,648.309387 631.933655,648.310486 
	C628.496765,648.312805 624.653076,648.902039 625.832031,642.480896 
	C617.917969,648.025818 610.424805,650.497620 601.877319,648.569702 
	C590.836365,646.079285 583.051025,637.298401 582.756897,625.959900 
	C582.441956,613.819397 582.708496,601.664795 582.588013,589.517700 
	C582.556946,586.385559 583.688232,584.923889 586.891479,584.895386 
	C601.802856,584.762695 599.085815,583.972046 599.273315,596.418518 
	C599.391113,604.238281 599.213684,612.062561 599.335205,619.882263 
	C599.476318,628.961365 604.379089,634.422729 612.276184,634.564880 
	C620.514099,634.713196 625.588623,629.250488 625.757141,619.978455 
	C625.820618,616.484985 625.759827,612.989197 625.755188,608.995605 
z"/>
<path fill="#000000" opacity="1.000000" stroke="none" 
	d="
M498.787537,500.438110 
	C491.910645,502.623718 489.325073,507.403473 489.300690,513.883728 
	C489.262421,524.049255 489.161804,534.216370 489.305084,544.379700 
	C489.355408,547.950623 488.271301,549.470886 484.477722,549.397339 
	C469.914337,549.115051 472.108948,551.008423 472.003448,537.452942 
	C471.886749,522.455322 471.937714,507.456146 471.979553,492.457825 
	C471.996368,486.431732 472.499237,486.009735 478.604492,485.926086 
	C480.104126,485.905548 481.612549,486.016144 483.102325,485.891602 
	C486.867523,485.576721 489.801056,486.313019 489.650940,491.465546 
	C494.343170,488.896667 498.312408,486.299591 503.203979,485.506470 
	C519.009644,482.943787 532.187805,493.704437 532.344482,509.731384 
	C532.456848,521.229065 532.226624,532.730957 532.422241,544.226379 
	C532.489746,548.194519 531.069519,549.465637 527.190186,549.394470 
	C514.120178,549.154907 515.961304,550.578125 515.840393,538.313416 
	C515.766479,530.814880 515.854858,523.314758 515.797668,515.815918 
	C515.705994,503.785431 511.201752,499.622803 498.787537,500.438110 
z"/>
<path fill="#000000" opacity="1.000000" stroke="none" 
	d="
M487.762207,587.472168 
	C494.734283,583.753052 501.659271,583.113953 508.868408,585.259949 
	C519.457214,588.412048 525.855103,598.106018 525.767273,610.752686 
	C525.691101,621.724976 525.581787,632.699890 525.750793,643.669556 
	C525.805054,647.191711 524.591736,648.405334 521.153931,648.347778 
	C506.641968,648.104675 508.963531,650.029053 508.788300,636.350037 
	C508.685883,628.356506 508.855438,620.359131 508.727661,612.366272 
	C508.598480,604.284485 504.551636,599.567322 497.533173,598.968384 
	C488.994263,598.239746 484.121582,601.596069 482.906036,610.195312 
	C481.482147,620.268311 482.538544,630.474365 482.392395,640.620911 
	C482.281433,648.325195 482.367859,648.340515 474.751404,648.318665 
	C464.794983,648.290100 465.667023,649.077881 465.649567,639.089905 
	C465.621338,622.933655 465.758453,606.775757 465.560303,590.621887 
	C465.507233,586.295654 466.904510,584.397156 471.276917,584.846069 
	C472.759247,584.998291 474.278809,584.938110 475.769958,584.824829 
	C479.601746,584.533691 482.868469,584.978333 482.719635,589.912476 
	C484.980743,589.923950 485.884613,588.156189 487.762207,587.472168 
z"/>
<path fill="#000000" opacity="1.000000" stroke="none" 
	d="
M791.356201,649.203613 
	C783.746826,648.115417 777.398499,645.433289 772.783997,639.637512 
	C770.192139,636.382080 767.937317,632.882874 768.898682,628.087769 
	C773.594055,627.109314 778.250854,627.771545 782.856689,627.563904 
	C784.773254,627.477417 785.084229,629.198425 785.887024,630.428345 
	C789.021240,635.230042 795.829651,637.067749 800.898987,634.595032 
	C802.813293,633.661133 804.300354,632.298279 804.464539,630.127502 
	C804.644897,627.741943 802.872131,626.485962 800.946228,625.805969 
	C796.559204,624.256958 792.084961,622.957031 787.667664,621.491150 
	C784.830261,620.549622 781.924866,619.717041 779.236389,618.442322 
	C773.376038,615.663574 769.835510,611.137634 769.666626,604.403809 
	C769.489136,597.328369 772.131226,591.638000 778.404480,588.155945 
	C788.585999,582.504456 799.073975,582.224548 809.470337,587.515320 
	C815.134216,590.397644 818.408020,595.275085 819.765381,601.530334 
	C820.376404,604.346375 819.533875,605.768555 816.697510,605.785156 
	C813.369324,605.804688 810.040466,605.637695 806.711365,605.577087 
	C804.960327,605.545227 804.274170,604.481384 803.453003,603.040283 
	C800.813171,598.407227 794.467773,596.490845 789.529602,598.580933 
	C787.718323,599.347656 786.488403,600.587585 786.360535,602.677856 
	C786.246399,604.543457 787.100220,605.870789 788.633179,606.821228 
	C791.953308,608.879517 795.725647,609.625183 799.433716,610.591553 
	C804.913879,612.019836 810.464111,613.346313 814.912476,617.191101 
	C822.791870,624.001465 822.564087,636.973145 814.495728,643.585999 
	C807.817993,649.059204 799.962830,649.722595 791.356201,649.203613 
z"/>
<path fill="#000000" opacity="1.000000" stroke="none" 
	d="
M559.206299,618.970825 
	C559.209595,620.297119 559.213745,621.129395 559.216553,621.961670 
	C559.251526,632.359863 559.245544,632.405273 569.587524,633.747498 
	C571.745178,634.027527 572.987793,634.882751 573.131653,637.098816 
	C573.163940,637.596985 573.184387,638.095825 573.211914,638.594299 
	C573.750488,648.339661 573.750610,648.339722 564.038452,648.316406 
	C548.093201,648.278137 541.810059,641.926208 541.771667,625.777649 
	C541.754211,618.453674 541.744202,611.129456 541.786621,603.805664 
	C541.801331,601.268738 541.582153,599.044617 538.245483,599.041138 
	C535.385742,599.038147 534.584473,597.322449 534.674744,594.783630 
	C534.751526,592.622498 534.701477,590.457031 534.709595,588.293457 
	C534.714966,586.857361 535.122192,585.230713 536.653748,585.270752 
	C542.438965,585.421814 541.784241,581.481873 541.775574,577.786377 
	C541.756470,569.687073 541.781677,569.686951 549.981750,569.681213 
	C550.814026,569.680603 551.646301,569.678406 552.478577,569.682861 
	C559.123474,569.718445 559.191284,569.784058 559.231506,576.335449 
	C559.239685,577.667053 559.337952,579.009460 559.207275,580.328308 
	C558.853333,583.900208 560.595520,585.178650 563.928223,584.862244 
	C564.258057,584.830933 564.593689,584.857117 564.926514,584.861206 
	C572.732361,584.956848 575.531311,589.078613 572.976257,596.570496 
	C572.389893,598.289795 571.204407,598.891113 569.611877,598.983948 
	C567.785522,599.090576 565.943359,599.231995 564.125305,599.106934 
	C560.534912,598.860168 558.967896,600.231323 559.152405,603.998047 
	C559.388367,608.813660 559.207703,613.649597 559.206299,618.970825 
z"/>
<path fill="#000000" opacity="1.000000" stroke="none" 
	d="
M657.024109,645.621582 
	C656.928894,627.363586 656.878540,609.565796 656.897705,591.768005 
	C656.904724,585.267334 657.277893,584.960815 663.602478,584.867249 
	C664.434021,584.854980 665.271362,584.916687 666.096619,584.841370 
	C670.583862,584.432007 674.592407,584.711731 674.518799,591.253479 
	C679.163818,588.245789 683.099670,585.250732 688.213928,584.452209 
	C691.515869,583.936646 692.992615,584.843140 693.020142,588.129028 
	C693.031311,589.459534 693.023010,590.790283 693.015564,592.120911 
	C692.967346,600.683044 692.966675,600.682983 684.567810,602.130981 
	C677.834961,603.291809 674.492249,606.633606 674.267822,613.486633 
	C673.952148,623.124146 673.933899,632.780640 674.134766,642.421753 
	C674.229736,646.978271 672.620422,649.137695 668.065308,648.270020 
	C664.405334,647.572876 660.014343,650.434082 657.024109,645.621582 
z"/>
<path fill="#000000" opacity="1.000000" stroke="none" 
	d="
M556.871948,497.057251 
	C561.867920,496.484802 563.451050,498.394653 563.366272,502.996857 
	C563.118469,516.446289 563.147888,529.904968 563.340881,543.356140 
	C563.403564,547.724915 562.263611,549.601746 557.478088,549.433411 
	C544.785339,548.987122 546.807007,550.777832 546.672791,538.497681 
	C546.549316,527.204285 546.638000,515.908508 546.631592,504.613831 
	C546.627380,497.140472 546.626160,497.140381 553.913757,497.081207 
	C554.744263,497.074463 555.574707,497.069672 556.871948,497.057251 
z"/>
<path fill="#000000" opacity="1.000000" stroke="none" 
	d="
M768.877930,389.630554 
	C777.097534,387.424377 779.581055,389.179626 780.181641,397.233032 
	C780.862061,406.355865 775.140564,414.497589 766.476501,416.735382 
	C761.370972,418.054016 759.400818,416.922821 758.058594,411.902222 
	C755.495056,402.313171 759.101868,394.678131 768.877930,389.630554 
z"/>
<path fill="#000000" opacity="1.000000" stroke="none" 
	d="
M725.193359,546.617981 
	C720.203979,536.826416 720.824341,529.915344 727.031189,523.421143 
	C730.985413,519.283813 733.505127,519.242432 737.452271,523.249878 
	C743.105591,528.989563 744.649231,537.807922 740.623230,544.823975 
	C736.733826,551.601929 731.953674,556.074890 725.193359,546.617981 
z"/>
<path fill="#000000" opacity="1.000000" stroke="none" 
	d="
M793.090820,511.372253 
	C785.572693,508.822144 781.637085,503.815918 780.423645,496.398071 
	C779.923340,493.339935 781.096802,491.758942 783.733154,490.604431 
	C794.714172,485.795776 808.394470,494.109131 809.099121,505.986633 
	C809.244568,508.438599 808.095459,509.661469 806.105652,510.544983 
	C802.005676,512.365417 797.817749,512.832825 793.090820,511.372253 
z"/>
<path fill="#000000" opacity="1.000000" stroke="none" 
	d="
M804.047058,475.343353 
	C801.053284,475.416962 798.649170,474.782593 796.430847,473.591736 
	C792.732300,471.606171 788.403870,469.385712 788.611877,464.780151 
	C788.813477,460.316559 793.093445,458.007294 796.855591,456.214569 
	C803.916260,452.850006 812.526550,454.684418 817.971985,460.172607 
	C821.040894,463.265564 821.091736,466.159302 818.150085,469.251892 
	C814.430847,473.162048 809.940918,475.330597 804.047058,475.343353 
z"/>
<path fill="#000000" opacity="1.000000" stroke="none" 
	d="
M686.878418,522.205811 
	C689.830750,516.709717 694.109802,513.707703 699.836426,512.437134 
	C703.640808,511.593140 705.782166,512.760254 707.069580,516.441528 
	C710.863892,527.290710 703.572449,539.045959 692.167969,540.536377 
	C689.067871,540.941589 687.502747,539.771057 686.472717,537.085083 
	C684.595276,532.189697 684.596497,527.361511 686.878418,522.205811 
z"/>
<path fill="#000000" opacity="1.000000" stroke="none" 
	d="
M770.648926,540.751465 
	C759.724792,536.870178 754.288452,526.500305 757.655762,516.988770 
	C758.864868,513.573303 760.881531,512.323975 764.428162,512.739807 
	C775.790771,514.072083 783.321716,528.042542 778.206116,538.246033 
	C776.539734,541.570007 773.983276,541.517151 770.648926,540.751465 
z"/>
<path fill="#000000" opacity="1.000000" stroke="none" 
	d="
M738.523010,405.539246 
	C733.334839,410.278656 731.596008,410.224762 727.161865,405.473602 
	C720.207153,398.021729 721.083862,385.722839 728.756714,379.096100 
	C731.837708,376.435089 734.167664,376.831726 736.993774,379.282013 
	C744.551941,385.835052 745.356262,396.661438 738.523010,405.539246 
z"/>
<path fill="#000000" opacity="1.000000" stroke="none" 
	d="
M686.627625,396.524231 
	C688.125122,387.347168 691.404480,385.734467 699.317749,389.900085 
	C707.663086,394.293121 711.117920,402.875854 708.458923,411.801178 
	C707.171204,416.123871 704.538940,417.171295 700.523193,416.209595 
	C691.809448,414.122833 686.380798,406.624023 686.627625,396.524231 
z"/>
<path fill="#000000" opacity="1.000000" stroke="none" 
	d="
M660.665771,494.737427 
	C666.489990,488.335236 673.332397,487.342010 680.927673,489.619507 
	C684.130798,490.580017 685.298279,492.627075 684.665771,496.081177 
	C682.713501,506.742340 672.250183,513.529602 661.984985,510.597809 
	C656.241211,508.957397 655.208130,507.197540 656.908875,501.558105 
	C657.630493,499.165466 658.799133,496.953369 660.665771,494.737427 
z"/>
<path fill="#000000" opacity="1.000000" stroke="none" 
	d="
M795.614990,439.982239 
	C794.411560,440.218903 793.588318,440.330383 792.768188,440.461182 
	C788.423950,441.154083 783.830383,440.718994 781.502686,437.011658 
	C779.074341,433.144165 781.512329,428.893127 783.846497,425.437744 
	C788.391907,418.708862 796.867737,416.163788 804.578552,418.472443 
	C808.952881,419.782104 809.941528,422.428864 808.820007,426.428802 
	C806.927246,433.179199 802.706848,437.711334 795.614990,439.982239 
z"/>
<path fill="#000000" opacity="1.000000" stroke="none" 
	d="
M672.565918,457.304565 
	C678.707886,463.164581 678.666504,465.153198 672.594727,470.214539 
	C665.296936,476.297882 653.804504,475.353394 647.901855,468.306152 
	C645.199585,465.079865 645.078125,462.300964 648.169189,459.180786 
	C654.601685,452.687653 663.287354,451.828827 672.565918,457.304565 
z"/>
<path fill="#000000" opacity="1.000000" stroke="none" 
	d="
M685.339600,433.017700 
	C685.510864,435.938873 684.359863,437.371582 682.022461,438.320343 
	C671.265564,442.686584 658.762512,435.450348 657.196960,423.951324 
	C656.756287,420.714569 658.148987,419.024109 660.987183,417.886475 
	C671.774109,413.562805 683.174255,420.415619 685.339600,433.017700 
z"/>
<path fill="#000000" opacity="1.000000" stroke="none" 
	d="
M751.520874,410.798096 
	C755.192078,418.353790 750.868896,425.187378 746.751953,427.651611 
	C744.005859,429.295288 741.859619,428.970673 740.024170,426.160370 
	C736.091370,420.139038 737.945801,411.974152 744.078308,408.467224 
	C747.246826,406.655304 749.725586,406.844391 751.520874,410.798096 
z"/>
<path fill="#000000" opacity="1.000000" stroke="none" 
	d="
M785.812012,484.153351 
	C778.297119,486.205750 772.950562,484.231415 770.032043,478.720245 
	C768.420471,475.676880 768.899780,473.372009 771.997986,471.639252 
	C777.473694,468.576721 784.311829,469.945343 788.091064,474.936890 
	C791.318726,479.199799 790.952393,480.944000 785.812012,484.153351 
z"/>
<path fill="#000000" opacity="1.000000" stroke="none" 
	d="
M788.736450,454.463989 
	C783.456604,460.259064 777.646057,461.401611 772.128052,458.157715 
	C769.152039,456.408173 768.303162,454.434967 770.250122,451.249664 
	C773.735291,445.547577 780.151733,443.411072 786.117615,445.991760 
	C790.210449,447.762268 791.394043,450.246765 788.736450,454.463989 
z"/>
<path fill="#000000" opacity="1.000000" stroke="none" 
	d="
M761.611328,504.395874 
	C760.741211,503.344513 759.971436,502.629730 759.592407,501.747192 
	C758.153015,498.395752 756.039734,494.310730 759.519409,491.731537 
	C762.793396,489.304779 767.150879,490.224060 770.657104,492.716034 
	C774.745483,495.621735 777.023499,503.175293 774.905579,506.472687 
	C773.129578,509.237793 767.264404,508.418823 761.611328,504.395874 
z"/>
<path fill="#000000" opacity="1.000000" stroke="none" 
	d="
M726.487061,425.092773 
	C724.061829,429.348694 721.189941,428.963318 717.966064,426.694916 
	C712.866943,423.106964 711.347656,414.834198 714.847290,409.707458 
	C716.430481,407.388184 718.324951,407.006592 720.872375,408.137115 
	C726.637817,410.695801 728.772400,416.656860 726.487061,425.092773 
z"/>
<path fill="#000000" opacity="1.000000" stroke="none" 
	d="
M697.044495,438.139709 
	C692.272339,435.523041 689.927795,431.790771 689.765991,426.688385 
	C689.659485,423.331146 691.379700,421.888672 694.587402,421.707825 
	C701.763367,421.303162 708.182129,428.070099 707.276184,435.156158 
	C706.729431,439.432831 703.931641,440.319550 697.044495,438.139709 
z"/>
<path fill="#000000" opacity="1.000000" stroke="none" 
	d="
M767.748779,422.165405 
	C775.589050,421.280396 777.556091,423.746918 775.342346,430.913269 
	C774.731689,432.890350 773.767883,434.534729 772.230286,435.907501 
	C768.256592,439.455170 761.665161,440.611633 759.530640,438.091553 
	C757.388245,435.562195 758.874695,428.769836 762.266602,425.321899 
	C763.711914,423.852753 765.446716,422.941772 767.748779,422.165405 
z"/>
<path fill="#000000" opacity="1.000000" stroke="none" 
	d="
M703.638916,489.893982 
	C708.026550,491.908325 707.379578,495.294708 706.569458,498.544312 
	C705.954041,501.012665 704.211365,502.882080 702.281555,504.487732 
	C698.481873,507.649139 692.537964,508.328918 690.477295,505.892670 
	C688.525330,503.584900 689.508972,496.963531 692.504761,493.964783 
	C695.413391,491.053314 698.965454,489.421753 703.638916,489.893982 
z"/>
<path fill="#000000" opacity="1.000000" stroke="none" 
	d="
M546.308838,478.119324 
	C547.819641,472.194916 551.466064,469.252197 556.034302,469.916138 
	C560.430298,470.555054 563.566833,474.559357 563.267639,479.150513 
	C562.966675,483.767975 559.411316,487.096069 554.749084,487.124603 
	C550.280212,487.151978 547.456299,484.275146 546.308838,478.119324 
z"/>
<path fill="#000000" opacity="1.000000" stroke="none" 
	d="
M737.687744,511.715454 
	C737.922302,504.837616 740.094238,500.921143 743.325867,501.064606 
	C747.268311,501.239685 752.006653,506.804108 752.284668,511.785980 
	C752.515991,515.929504 751.908325,520.629089 747.698120,521.812195 
	C743.381958,523.025146 740.648987,519.112244 738.739136,515.449707 
	C738.214294,514.443115 738.050354,513.248291 737.687744,511.715454 
z"/>
<path fill="#000000" opacity="1.000000" stroke="none" 
	d="
M681.138184,470.861755 
	C684.731201,469.057983 687.991394,468.438629 691.527710,469.988464 
	C696.762695,472.282776 697.575317,475.190308 694.021484,479.591309 
	C692.168396,481.886261 689.679688,483.230927 686.924988,483.972870 
	C683.101257,485.002808 676.729980,482.831055 675.899414,479.949249 
	C674.652039,475.621521 677.966553,473.363037 681.138184,470.861755 
z"/>
<path fill="#000000" opacity="1.000000" stroke="none" 
	d="
M725.460327,503.726685 
	C728.338074,510.792023 727.417358,515.326782 722.475037,519.697449 
	C718.317017,523.374512 715.526978,522.711243 713.549194,517.575623 
	C711.279785,511.682709 713.095032,505.606598 718.121887,502.268311 
	C720.841675,500.462097 723.331238,500.146393 725.460327,503.726685 
z"/>
<path fill="#000000" opacity="1.000000" stroke="none" 
	d="
M676.214050,451.360657 
	C675.127747,445.507111 679.740479,445.318756 682.925232,444.355774 
	C687.505493,442.970764 692.956665,445.867004 695.484131,450.371613 
	C696.467590,452.124298 697.532043,453.842041 695.773010,455.811981 
	C693.255859,458.630737 686.627625,459.529144 682.206055,457.624207 
	C679.442627,456.433685 677.805359,454.194580 676.214050,451.360657 
z"/>
<path fill="#000000" opacity="1.000000" stroke="none" 
	d="
M765.193787,443.372467 
	C769.557861,446.642822 767.167419,449.498932 764.810913,451.826813 
	C762.133484,454.471741 758.379517,455.693420 755.373535,452.950867 
	C752.454590,450.287781 754.802795,447.270569 756.931213,445.190094 
	C759.021240,443.147125 761.844971,442.445282 765.193787,443.372467 
z"/>
<path fill="#000000" opacity="1.000000" stroke="none" 
	d="
M735.034790,438.853149 
	C729.704041,440.558197 728.713562,436.771332 727.953613,433.441895 
	C727.144775,429.898163 728.635193,426.860046 731.972290,425.238770 
	C733.972107,424.267212 735.472473,425.738739 736.439392,427.347992 
	C738.836914,431.338318 738.596680,435.160339 735.034790,438.853149 
z"/>
<path fill="#000000" opacity="1.000000" stroke="none" 
	d="
M758.740967,462.824585 
	C763.888611,458.991028 767.876648,458.809631 770.917053,461.967377 
	C771.971802,463.062805 773.131531,464.341980 772.332581,465.868683 
	C770.499451,469.371552 767.253784,470.680725 763.592590,469.809601 
	C760.403381,469.050751 756.971802,467.809967 758.740967,462.824585 
z"/>
<path fill="#000000" opacity="1.000000" stroke="none" 
	d="
M709.786987,482.579163 
	C709.217773,483.258148 708.893982,483.641052 708.515686,483.959259 
	C706.065674,486.020020 703.312012,486.961334 700.235535,485.669006 
	C698.546753,484.959564 697.872498,483.425507 698.129761,481.575531 
	C698.645874,477.863922 701.427368,476.460968 704.504333,475.393524 
	C706.529541,474.691010 708.569519,474.881165 710.112183,476.321259 
	C712.113586,478.189636 710.897644,480.282349 709.786987,482.579163 
z"/>
<path fill="#000000" opacity="1.000000" stroke="none" 
	d="
M721.677856,441.764160 
	C717.859497,444.592682 715.418091,442.225189 713.386047,439.837616 
	C711.165771,437.228973 710.976685,433.999939 712.636963,430.973206 
	C713.748230,428.947449 715.687988,429.309021 717.471741,430.113983 
	C721.552429,431.955444 723.217957,436.250214 721.677856,441.764160 
z"/>
<path fill="#000000" opacity="1.000000" stroke="none" 
	d="
M694.269409,466.744629 
	C692.434631,464.371033 693.390503,462.756226 695.058655,461.340302 
	C697.727234,459.075256 700.726440,458.708771 703.854553,460.179260 
	C705.646301,461.021515 707.710510,462.034088 707.759155,464.284149 
	C707.820129,467.102875 705.294556,468.092041 703.201172,468.903717 
	C700.018982,470.137543 697.020142,469.430298 694.269409,466.744629 
z"/>
<path fill="#000000" opacity="1.000000" stroke="none" 
	d="
M712.057861,497.913208 
	C710.368408,492.985321 711.679626,488.536407 715.093018,486.740234 
	C716.768982,485.858307 718.604492,485.388397 720.288208,486.593903 
	C721.753296,487.642944 722.108154,489.319733 722.021606,491.050354 
	C721.747742,496.527344 717.400024,499.731903 712.057861,497.913208 
z"/>
<path fill="#000000" opacity="1.000000" stroke="none" 
	d="
M746.186890,497.621338 
	C744.520569,496.257080 743.756348,494.774170 743.759338,493.049561 
	C743.763489,490.661621 742.650574,487.462830 745.513306,486.371857 
	C748.698303,485.158051 751.132629,487.377380 752.969299,489.959747 
	C753.970825,491.367920 754.333923,492.950989 754.299011,494.662537 
	C754.198303,499.590820 751.879028,500.545044 746.186890,497.621338 
z"/>
<path fill="#000000" opacity="1.000000" stroke="none" 
	d="
M766.485229,479.975769 
	C767.379028,482.415771 768.130066,484.745270 765.598572,485.949066 
	C762.513367,487.416168 759.420898,486.810944 756.897888,484.457001 
	C755.060303,482.742554 753.161865,480.542053 754.349060,478.002563 
	C755.651001,475.217743 758.612000,475.237976 761.297791,475.878204 
	C763.448181,476.390839 765.160889,477.673828 766.485229,479.975769 
z"/>
<path fill="#000000" opacity="1.000000" stroke="none" 
	d="
M746.899841,443.258240 
	C742.359924,441.539398 743.558228,438.036896 744.189575,435.203644 
	C744.898499,432.022247 747.675964,430.512817 750.797729,430.074829 
	C752.432739,429.845428 753.739685,430.823883 754.130249,432.424835 
	C754.810120,435.211334 754.943604,438.086487 752.866577,440.376038 
	C751.432861,441.956451 749.622864,443.186981 746.899841,443.258240 
z"/>
<path fill="#000000" opacity="1.000000" stroke="none" 
	d="
M727.817139,498.635864 
	C727.757019,498.056824 727.747375,497.890747 727.741638,497.724518 
	C727.625244,494.348633 728.261841,491.195312 731.916687,490.101898 
	C734.202026,489.418152 735.628967,491.372223 736.528015,493.145813 
	C738.255371,496.552979 738.098694,499.999939 735.379272,502.850433 
	C732.868652,505.481964 730.321960,504.131378 727.817139,498.635864 
z"/>
<path fill="#000000" opacity="1.000000" stroke="none" 
	d="
M705.472229,443.002258 
	C706.021790,443.170471 706.179138,443.223083 706.327942,443.293823 
	C709.389954,444.749664 711.419006,446.915131 711.260437,450.552826 
	C711.180420,452.388123 709.909973,453.014526 708.362305,453.413727 
	C704.796387,454.333405 702.317688,452.506561 700.100037,450.133789 
	C698.643738,448.575745 697.970459,446.544495 698.912598,444.648010 
	C700.197571,442.061646 702.789856,442.710815 705.472229,443.002258 
z"/>
<path fill="#000000" opacity="1.000000" stroke="none" 
	d="
M746.769897,448.241608 
	C749.220154,449.110321 749.838013,450.724091 749.050720,452.678192 
	C748.334290,454.456451 746.845886,455.559998 744.859863,455.736664 
	C743.793091,455.831604 742.897827,455.371094 742.416260,454.390747 
	C741.545776,452.618683 742.398865,451.187653 743.491333,449.878632 
	C744.244629,448.975891 745.172424,448.284393 746.769897,448.241608 
z"/>
<path fill="#000000" opacity="1.000000" stroke="none" 
	d="
M751.499390,463.097809 
	C748.600037,463.380798 745.970581,463.207184 746.540466,459.804993 
	C746.964600,457.272827 749.317383,456.687134 751.686157,457.148010 
	C752.816406,457.367859 753.999084,457.814819 754.300903,459.161743 
	C754.759033,461.206421 753.486328,462.219910 751.499390,463.097809 
z"/>
<path fill="#000000" opacity="1.000000" stroke="none" 
	d="
M735.017334,445.521332 
	C736.116089,443.621155 737.294250,442.485748 739.208069,443.541260 
	C740.473267,444.239075 740.982971,445.524963 740.911682,446.909790 
	C740.818481,448.719940 739.792053,450.394501 738.162109,450.689697 
	C733.994080,451.444641 734.848816,448.295319 735.017334,445.521332 
z"/>
<path fill="#000000" opacity="1.000000" stroke="none" 
	d="
M719.002319,454.772278 
	C716.753174,453.302307 716.200500,451.545502 717.119385,449.455536 
	C717.570190,448.430359 718.602112,448.220490 719.649841,448.456238 
	C721.572327,448.888733 722.972473,450.001038 723.395569,451.960571 
	C724.233704,455.842957 721.908447,455.606018 719.002319,454.772278 
z"/>
<path fill="#000000" opacity="1.000000" stroke="none" 
	d="
M736.512451,486.021973 
	C735.880615,485.498199 735.448242,485.181976 735.248169,484.756561 
	C734.234741,482.600983 733.233337,480.222870 736.123657,478.855652 
	C738.250854,477.849396 739.664551,479.519897 740.176270,481.309814 
	C740.953369,484.028381 740.398560,486.257507 736.512451,486.021973 
z"/>
<path fill="#000000" opacity="1.000000" stroke="none" 
	d="
M721.582581,479.793396 
	C719.613342,480.678162 717.736206,481.663025 716.644592,479.391937 
	C715.735413,477.500183 716.829285,475.925385 718.372437,474.782043 
	C719.629028,473.850983 721.163879,473.356262 722.395386,474.559814 
	C724.177368,476.301331 723.593262,478.067444 721.582581,479.793396 
z"/>
<path fill="#000000" opacity="1.000000" stroke="none" 
	d="
M730.765991,449.468872 
	C728.941101,451.651917 727.337219,451.243958 726.003723,449.556000 
	C724.816589,448.053314 724.322083,446.304779 725.477051,444.499634 
	C726.160156,443.432068 727.147156,442.767334 728.408630,443.357361 
	C730.878723,444.512604 731.603943,446.532715 730.765991,449.468872 
z"/>
<path fill="#000000" opacity="1.000000" stroke="none" 
	d="
M748.427002,476.832642 
	C749.348145,478.940613 749.266052,480.512817 747.091553,480.980194 
	C744.828857,481.466492 743.365967,480.087830 742.349854,478.274963 
	C741.650146,477.026611 741.656311,475.509674 742.847839,474.702148 
	C745.236877,473.082886 746.710938,475.019653 748.427002,476.832642 
z"/>
<path fill="#000000" opacity="1.000000" stroke="none" 
	d="
M730.973755,482.018219 
	C730.331604,484.350189 729.489685,486.167267 727.001343,485.862762 
	C725.720215,485.705994 725.190796,484.520874 724.988892,483.371033 
	C724.603333,481.174774 725.420776,479.368103 727.538696,478.684875 
	C729.961060,477.903442 730.600037,479.749908 730.973755,482.018219 
z"/>
<path fill="#000000" opacity="1.000000" stroke="none" 
	d="
M750.078247,472.225372 
	C747.809021,471.484253 745.714355,470.748535 746.471924,468.174438 
	C746.956482,466.527893 748.719116,466.391388 750.217468,466.559082 
	C752.097717,466.769531 753.949707,467.521515 754.170715,469.599792 
	C754.451355,472.237762 752.277100,472.165588 750.078247,472.225372 
z"/>
<path fill="#000000" opacity="1.000000" stroke="none" 
	d="
M718.903687,469.109619 
	C718.641418,469.918396 718.504272,470.481323 718.145996,470.760651 
	C716.135071,472.328430 713.939392,473.003845 711.858276,471.043762 
	C710.626465,469.883545 711.182068,468.402679 712.397034,467.636108 
	C714.787354,466.127991 717.299683,465.141998 718.903687,469.109619 
z"/>
<path fill="#000000" opacity="1.000000" stroke="none" 
	d="
M717.319702,457.470978 
	C718.989014,458.892670 719.900940,460.301178 718.238037,461.794250 
	C716.790955,463.093567 715.069702,463.412231 713.369507,461.995331 
	C712.206726,461.026367 710.887207,459.978394 711.809509,458.344635 
	C713.023743,456.193939 715.037598,456.580780 717.319702,457.470978 
z"/>
</svg>