<?xml version="1.0" encoding="UTF-8"?>
<svg id="Layer_1" xmlns="http://www.w3.org/2000/svg" version="1.1" viewBox="0 0 1080 1080">
  <!-- Generator: Adobe Illustrator 29.1.0, SVG Export Plug-In . SVG Version: 2.1.0 Build 142)  -->
  <defs>
    <style>
      .st0 {
        fill: #010101;
      }

      .st1 {
        fill: #ed2224;
      }

      .st2 {
        fill: #f38d20;
      }

      .st3 {
        fill: #e65f25;
      }

      .st4 {
        fill: #fff;
      }

      .st5 {
        fill: #fdb913;
      }

      .st6 {
        fill: #faa41a;
      }
    </style>
  </defs>
  <g>
    <g>
      <g>
        <path class="st0" d="M-682.7,527.3c2.6-5.1,6.2-9.1,10.8-11.8s9.6-4.1,15.2-4.1,9.2,1,12.8,3c3.7,2,6.6,4.5,8.8,7.4v-9.3h16.7v65.5h-16.7v-9.6c-2.1,3.1-5.1,5.6-8.8,7.6s-8,3-12.9,3-10.5-1.4-15.1-4.2c-4.5-2.8-8.1-6.8-10.8-12s-4-11.1-4-17.8,1.3-12.5,4-17.6ZM-637.5,534.8c-1.6-2.9-3.7-5.1-6.4-6.6s-5.5-2.3-8.6-2.3-5.9.8-8.5,2.2c-2.6,1.5-4.7,3.7-6.3,6.6-1.6,2.9-2.4,6.3-2.4,10.2s.8,7.4,2.4,10.3c1.6,3,3.7,5.2,6.4,6.8,2.6,1.6,5.5,2.4,8.5,2.4s6-.8,8.6-2.3c2.7-1.5,4.8-3.7,6.4-6.6,1.6-2.9,2.4-6.3,2.4-10.3s-.8-7.5-2.4-10.3h0Z"/>
        <path class="st0" d="M-547.1,518.8c4.8,4.9,7.2,11.8,7.2,20.6v38.4h-16.5v-36.2c0-5.2-1.3-9.2-3.9-12-2.6-2.8-6.1-4.2-10.6-4.2s-8.2,1.4-10.8,4.2c-2.6,2.8-4,6.8-4,12v36.2h-16.5v-65.5h16.5v8.2c2.2-2.8,5-5.1,8.5-6.7,3.4-1.6,7.2-2.4,11.3-2.4,7.8,0,14.1,2.5,18.9,7.4h0Z"/>
        <path class="st0" d="M-507.6,524v53.9h-16.5v-53.9h16.5,0Z"/>
        <path class="st0" d="M-452.6,577.8l-22.2-27.9v27.9h-16.5v-87.4h16.5v49.7l22-27.8h21.5l-28.8,32.8,29.1,32.6h-21.5Z"/>
        <path class="st0" d="M-622,654.3h-47.8c.4,4.7,2,8.4,5,11.1,2.9,2.7,6.5,4,10.8,4,6.1,0,10.5-2.6,13.1-7.9h17.8c-1.9,6.3-5.5,11.5-10.9,15.5s-11.9,6.1-19.7,6.1-12-1.4-17-4.2c-5-2.8-8.9-6.8-11.7-11.9s-4.2-11-4.2-17.7,1.4-12.7,4.1-17.8c2.8-5.1,6.6-9.1,11.6-11.8s10.7-4.1,17.1-4.1,11.8,1.3,16.7,4,8.7,6.5,11.5,11.4c2.7,4.9,4.1,10.6,4.1,17s-.2,4.5-.5,6.4h0ZM-638.7,643.2c0-4.2-1.6-7.7-4.6-10.2s-6.7-3.8-11-3.8-7.5,1.2-10.3,3.7c-2.8,2.5-4.5,5.9-5.1,10.3h31.1Z"/>
        <path class="st0" d="M-554.3,623c4.8,4.9,7.2,11.8,7.2,20.6v38.4h-16.5v-36.2c0-5.2-1.3-9.2-3.9-12-2.6-2.8-6.1-4.2-10.6-4.2s-8.2,1.4-10.8,4.2c-2.6,2.8-4,6.8-4,12v36.2h-16.5v-65.5h16.5v8.2c2.2-2.8,5-5.1,8.5-6.7,3.4-1.6,7.2-2.4,11.3-2.4,7.8,0,14.1,2.5,18.9,7.4h0Z"/>
        <path class="st0" d="M-512.1,630.2v31.7c0,2.2.5,3.8,1.6,4.8,1.1,1,2.9,1.5,5.4,1.5h7.7v13.9h-10.4c-13.9,0-20.9-6.8-20.9-20.3v-31.5h-7.8v-13.6h7.8v-16.2h16.7v16.2h14.6v13.6h-14.7Z"/>
        <path class="st0" d="M-423.7,616.6v65.5h-16.7v-8.3c-2.1,2.8-4.9,5.1-8.3,6.7-3.4,1.6-7.1,2.4-11.2,2.4s-9.6-1.1-13.6-3.2-7-5.4-9.3-9.6-3.4-9.2-3.4-15.1v-38.4h16.5v36c0,5.2,1.3,9.2,3.9,12,2.6,2.8,6.1,4.2,10.6,4.2s8.1-1.4,10.8-4.2c2.6-2.8,3.9-6.8,3.9-12v-36h16.7Z"/>
        <path class="st0" d="M-382.5,618.6c3.4-2,7.3-3,11.8-3v17.4h-4.4c-5.2,0-9.1,1.2-11.8,3.7s-4,6.7-4,12.8v32.6h-16.5v-65.5h16.5v10.2c2.1-3.5,4.9-6.2,8.3-8.2h0Z"/>
        <path class="st0" d="M-299.3,654.3h-47.9c.4,4.7,2,8.4,5,11.1s6.5,4,10.8,4c6.1,0,10.5-2.6,13.1-7.9h17.8c-1.9,6.3-5.5,11.5-10.9,15.5-5.4,4.1-11.9,6.1-19.7,6.1s-12-1.4-17-4.2c-5-2.8-8.9-6.8-11.7-11.9-2.8-5.1-4.2-11-4.2-17.7s1.4-12.7,4.1-17.8c2.8-5.1,6.6-9.1,11.6-11.8s10.7-4.1,17.1-4.1,11.8,1.3,16.7,4c4.9,2.7,8.7,6.5,11.5,11.4,2.7,4.9,4.1,10.6,4.1,17s-.2,4.5-.5,6.4h0ZM-316,643.2c0-4.2-1.6-7.7-4.6-10.2s-6.7-3.8-11-3.8-7.5,1.2-10.3,3.7-4.5,5.9-5.1,10.3h31.1Z"/>
        <path class="st0" d="M-276.2,680.2c-4.2-1.9-7.6-4.5-10.1-7.9s-3.8-7-4.1-11h16.7c.3,2.5,1.5,4.6,3.7,6.3s4.9,2.5,8.1,2.5,5.6-.6,7.4-1.9c1.8-1.3,2.7-2.9,2.7-4.8s-1.1-3.7-3.2-4.8c-2.2-1.1-5.6-2.2-10.3-3.5-4.9-1.2-8.9-2.4-12-3.7-3.1-1.3-5.8-3.2-8-5.8-2.2-2.6-3.4-6.1-3.4-10.5s1-6.9,3.1-9.9,5.1-5.4,9-7.1c3.9-1.7,8.5-2.6,13.8-2.6,7.8,0,14,2,18.7,5.8,4.6,3.9,7.2,9.2,7.7,15.8h-15.8c-.2-2.6-1.3-4.7-3.2-6.2-1.9-1.5-4.5-2.3-7.7-2.3s-5.3.5-6.9,1.7c-1.6,1.1-2.4,2.6-2.4,4.6s1.1,3.9,3.3,5c2.2,1.1,5.6,2.3,10.3,3.5,4.7,1.2,8.6,2.4,11.7,3.7,3.1,1.3,5.7,3.2,8,5.8,2.2,2.6,3.4,6.1,3.5,10.5,0,3.8-1,7.2-3.1,10.2-2.1,3-5.1,5.3-9,7s-8.5,2.5-13.6,2.5-10.2-1-14.4-2.9h0Z"/>
      </g>
      <path class="st0" d="M-687.8,482.2l-73.7,200.8h-48.9l-73.7-200.9h43.2l55.2,159.7,55-159.7h42.9,0Z"/>
      <circle class="st1" cx="-515.9" cy="503.6" r="8.6"/>
    </g>
    <g>
      <g>
        <path class="st3" d="M-317.8,413.7c0,6.5-3.4,12.2-8.5,15.5-.5.4-1,.7-1.6,1,0,0-.1,0-.2,0,0,0,0,0,0,0-2.3-1.1-4.1-2.6-5.6-4.4-3-3.3-4.8-7.6-4.8-12.4s2.8-11.3,7.2-14.6c.8-.7,1.8-1.3,2.8-1.9,0,0,0,0,.1,0,0,0,0,0,.1,0,2.4,1.1,4.3,2.7,5.9,4.5h0c2.9,3.3,4.6,7.5,4.6,12.2h0Z"/>
        <path class="st3" d="M-281.4,429.1c-3.3,5.6-9,8.9-15.1,9.2-.6,0-1.2,0-1.9,0h-.2s0,0,0,0c-1.4-2.1-2.3-4.3-2.7-6.6-1-4.3-.4-9,2-13.2,3-5.2,8.1-8.3,13.6-9,1.1-.2,2.2-.2,3.3-.2h.1s0,0,0,.1c1.5,2.2,2.4,4.5,2.8,6.9h0c.9,4.3.2,8.9-2.1,12.9Z"/>
        <path class="st3" d="M-257.6,460.6c-5.6,3.2-12.3,3.2-17.6.4-.6-.3-1.1-.6-1.6-.9,0,0-.1,0-.2-.1h0c-.2-2.6.2-4.9,1-7.1,1.4-4.2,4.2-8,8.4-10.4,5.2-3,11.2-3.1,16.3-1,1,.4,2,.9,3,1.5,0,0,0,0,.1,0h0c.2,2.7-.2,5.2-1,7.5h0c-1.4,4.1-4.2,7.8-8.3,10.1h0Z"/>
        <path class="st3" d="M-252.9,499.7c-6.5,0-12.2-3.4-15.5-8.5-.4-.5-.7-1-1-1.6,0,0,0-.1,0-.2,0,0,0,0,0,0,1.1-2.3,2.6-4.1,4.4-5.6,3.3-3,7.7-4.8,12.5-4.8,6,0,11.3,2.9,14.6,7.3.7.9,1.3,1.8,1.9,2.8,0,0,0,0,0,.1,0,0,0,0,0,.1-1.1,2.4-2.7,4.3-4.6,5.8h0c-3.3,2.9-7.6,4.6-12.2,4.6h0Z"/>
        <path class="st3" d="M-268.3,536c-5.6-3.3-8.9-9.1-9.1-15.1,0-.6,0-1.2,0-1.9v-.2s0,0,0,0c2.1-1.4,4.3-2.3,6.6-2.7,4.4-.9,9-.3,13.2,2.1,5.1,3,8.3,8.1,9,13.6.2,1.1.2,2.2.2,3.3v.2s0,0-.1,0c-2.2,1.5-4.5,2.4-6.9,2.8h0c-4.3.8-8.8.2-12.9-2.2h0Z"/>
        <path class="st3" d="M-299.9,559.7c-3.2-5.7-3.1-12.3-.3-17.7.3-.6.6-1.1.9-1.7,0,0,0-.1.1-.2h0c2.5-.2,4.9.2,7,1,4.2,1.4,8,4.3,10.4,8.4,3,5.2,3.1,11.2,1,16.3-.4,1-.9,2-1.5,3,0,0,0,0,0,.1h-.1c-2.6.2-5.1-.2-7.3-1h0c-4.1-1.4-7.8-4.3-10.1-8.3h0Z"/>
        <path class="st3" d="M-339.1,564.3c0-6.5,3.5-12.2,8.6-15.4.5-.3,1.1-.7,1.6-1,0,0,.1,0,.2,0,0,0,0,0,0,0,2.2,1.1,4.1,2.6,5.6,4.4,3,3.3,4.8,7.7,4.7,12.5,0,6-2.9,11.2-7.3,14.6-.9.7-1.8,1.3-2.8,1.8,0,0,0,0-.1,0,0,0,0,0-.1,0-2.4-1.1-4.3-2.7-5.8-4.6h0c-2.9-3.3-4.6-7.6-4.5-12.3h0Z"/>
        <path class="st3" d="M-375.3,548.7c3.3-5.6,9.1-8.8,15.1-9.1.6,0,1.2,0,1.9,0h.2s0,0,0,0c1.4,2.1,2.2,4.3,2.6,6.6.9,4.3.3,9-2.1,13.2-3,5.1-8.2,8.3-13.7,8.9-1.1.2-2.2.2-3.3.2h-.1s0,0,0,0c-1.5-2.2-2.4-4.5-2.7-6.9h0c-.8-4.3-.2-8.9,2.2-12.9h0Z"/>
        <path class="st3" d="M-398.8,517c5.7-3.2,12.3-3.1,17.6-.3.6.3,1.1.6,1.6.9,0,0,.1,0,.2,0h0c.1,2.6-.2,4.9-1,7.1-1.4,4.2-4.3,8-8.5,10.3-5.2,2.9-11.2,3.1-16.3.9-1-.4-2-.9-3-1.5,0,0,0,0-.1,0h0c-.2-2.7.2-5.2,1.1-7.5h0c1.4-4.1,4.3-7.8,8.4-10.1h0Z"/>
        <path class="st3" d="M-403.3,477.8c6.5,0,12.2,3.5,15.4,8.6.3.5.7,1.1,1,1.6,0,0,0,.1,0,.2,0,0,0,0,0,0-1.1,2.2-2.6,4.1-4.4,5.6-3.3,3-7.7,4.7-12.5,4.7-6,0-11.2-3-14.6-7.4-.7-.9-1.3-1.8-1.8-2.8,0,0,0,0,0-.1,0,0,0,0,0-.1,1.1-2.4,2.7-4.3,4.6-5.8h0c3.3-2.9,7.6-4.6,12.3-4.5h0Z"/>
        <path class="st3" d="M-387.6,441.7c5.6,3.3,8.8,9.1,9,15.2,0,.6,0,1.2,0,1.9v.2s0,0,0,0c-2.1,1.4-4.4,2.2-6.6,2.6-4.4.9-9,.2-13.2-2.2-5.1-3-8.2-8.2-8.9-13.7-.2-1.1-.2-2.2-.2-3.3h0c0-.2,0-.2.1-.2,2.2-1.5,4.5-2.4,6.9-2.7h0c4.3-.8,8.9-.1,12.9,2.3h0Z"/>
        <path class="st3" d="M-355.8,418.2c3.2,5.7,3,12.3.2,17.6-.3.6-.6,1.1-.9,1.6,0,0,0,.1-.1.2h0c-2.5.1-4.9-.2-7-1-4.2-1.4-8-4.3-10.3-8.5-2.9-5.2-3-11.2-.8-16.3.4-1,.9-2,1.5-3,0,0,0,0,0-.1h.1c2.6-.2,5.1.2,7.3,1.1h0c4.1,1.4,7.7,4.3,10,8.4h0Z"/>
      </g>
      <g>
        <path class="st6" d="M-323.4,454.9c0,3-1.5,5.5-3.8,7-.2.2-.5.3-.7.4,0,0,0,0,0,0,0,0,0,0,0,0-1-.5-1.9-1.2-2.5-2-1.4-1.5-2.2-3.5-2.2-5.6s1.3-5.1,3.3-6.6c.4-.3.8-.6,1.3-.8,0,0,0,0,0,0,0,0,0,0,0,0,1.1.5,2,1.2,2.6,2.1h0c1.3,1.5,2.1,3.4,2.1,5.5h0Z"/>
        <path class="st6" d="M-307,461.9c-1.5,2.5-4.1,4-6.8,4.2-.3,0-.6,0-.9,0h0s0,0,0,0c-.6-1-1-2-1.2-3-.4-2-.2-4.1.9-6,1.4-2.3,3.7-3.8,6.2-4.1.5,0,1-.1,1.5-.1h0s0,0,0,0c.7,1,1.1,2,1.3,3.1h0c.4,1.9.1,4-1,5.9h0Z"/>
        <path class="st6" d="M-296.2,476.1c-2.5,1.5-5.6,1.4-8,.2-.2-.1-.5-.3-.8-.4,0,0,0,0,0,0h0c0-1.2,0-2.2.4-3.2.6-1.9,1.9-3.6,3.8-4.7,2.4-1.4,5.1-1.4,7.4-.5.5.2.9.4,1.4.7,0,0,0,0,0,0h0c.1,1.2,0,2.4-.5,3.4h0c-.6,1.9-1.9,3.5-3.8,4.6h0Z"/>
        <path class="st6" d="M-294,493.9c-3,0-5.5-1.5-7-3.9-.2-.2-.3-.5-.4-.7,0,0,0,0,0,0,0,0,0,0,0,0,.5-1,1.2-1.9,2-2.5,1.5-1.4,3.5-2.2,5.6-2.2,2.7,0,5.1,1.3,6.6,3.3.3.4.6.8.8,1.3,0,0,0,0,0,0,0,0,0,0,0,0-.5,1.1-1.2,2-2.1,2.6h0c-1.5,1.3-3.4,2.1-5.5,2.1h0Z"/>
        <path class="st6" d="M-301,510.3c-2.5-1.5-4-4.1-4.1-6.9,0-.3,0-.6,0-.9h0c0,0,0,0,0-.1,1-.6,2-1,3-1.2,2-.4,4.1-.1,6,1,2.3,1.4,3.8,3.7,4.1,6.2,0,.5.1,1,0,1.5h0c0,0,0,0,0,.1-1,.7-2,1.1-3.1,1.2h0c-1.9.4-4,0-5.8-1h0Z"/>
        <path class="st6" d="M-315.3,521c-1.5-2.6-1.4-5.6-.1-8,.1-.2.3-.5.4-.8,0,0,0,0,0,0h0c1.1,0,2.2,0,3.2.5,1.9.6,3.6,1.9,4.7,3.8,1.3,2.3,1.4,5.1.4,7.4-.2.5-.4.9-.7,1.3,0,0,0,0,0,0h0c-1.2,0-2.3,0-3.3-.5h0c-1.9-.6-3.5-1.9-4.6-3.8h0Z"/>
        <path class="st6" d="M-333.1,523.2c0-3,1.6-5.5,3.9-7,.2-.2.5-.3.7-.4,0,0,0,0,0,0,0,0,0,0,0,0,1,.5,1.9,1.2,2.5,2,1.4,1.5,2.2,3.5,2.1,5.7,0,2.7-1.3,5.1-3.3,6.6-.4.3-.8.6-1.3.8,0,0,0,0,0,0,0,0,0,0,0,0-1.1-.5-2-1.2-2.6-2.1h0c-1.3-1.5-2.1-3.4-2.1-5.6Z"/>
        <path class="st6" d="M-349.5,516.1c1.5-2.5,4.1-4,6.9-4.1.3,0,.6,0,.9,0h0s0,0,0,0c.6.9,1,2,1.2,3,.4,2,.1,4.1-1,6-1.4,2.3-3.7,3.8-6.2,4-.5,0-1,.1-1.5,0h0s0,0,0,0c-.7-1-1.1-2-1.2-3.1h0c-.4-1.9,0-4,1-5.8h0Z"/>
        <path class="st6" d="M-360.2,501.7c2.6-1.5,5.6-1.4,8-.1.2.1.5.3.7.4,0,0,0,0,0,0h0c0,1.2-.1,2.2-.5,3.2-.6,1.9-1.9,3.6-3.8,4.7-2.4,1.3-5.1,1.4-7.4.4-.5-.2-.9-.4-1.4-.7,0,0,0,0,0,0h0c0-1.2.1-2.4.5-3.4h0c.6-1.9,1.9-3.5,3.8-4.5h0Z"/>
        <path class="st6" d="M-362.2,484c3,0,5.5,1.6,7,3.9.2.2.3.5.4.7,0,0,0,0,0,0,0,0,0,0,0,0-.5,1-1.2,1.9-2,2.5-1.5,1.3-3.5,2.1-5.7,2.1-2.7,0-5.1-1.3-6.6-3.4-.3-.4-.6-.8-.8-1.3,0,0,0,0,0,0,0,0,0,0,0,0,.5-1.1,1.2-2,2.1-2.6h0c1.5-1.3,3.4-2.1,5.6-2h0Z"/>
        <path class="st6" d="M-355.1,467.6c2.5,1.5,4,4.1,4.1,6.9,0,.3,0,.6,0,.9h0c0,0,0,0,0,.1-1,.6-2,1-3,1.2-2,.4-4.1.1-6-1-2.3-1.4-3.7-3.7-4-6.2,0-.5-.1-1,0-1.5h0c0,0,0,0,0-.1,1-.7,2-1.1,3.1-1.2h0c1.9-.4,4,0,5.8,1h0Z"/>
        <path class="st6" d="M-340.7,457c1.4,2.6,1.4,5.6,0,8-.1.2-.3.5-.4.7,0,0,0,0,0,0h0c-1.1,0-2.2-.1-3.2-.5-1.9-.6-3.6-2-4.7-3.9-1.3-2.4-1.4-5.1-.4-7.4.2-.5.4-.9.7-1.4,0,0,0,0,0,0h0c1.2,0,2.3.1,3.3.5h0c1.9.6,3.5,2,4.5,3.8h0Z"/>
      </g>
      <g>
        <path class="st2" d="M-359.3,448c3.1,3.1,4.2,7.5,3.4,11.5,0,.4-.2.8-.3,1.2,0,0,0,0,0,.1,0,0,0,0,0,0-1.6.6-3.2.7-4.8.6-3-.1-6-1.4-8.3-3.6-2.9-2.9-4-6.8-3.5-10.5,0-.7.2-1.5.4-2.2,0,0,0,0,0-.1,0,0,0,0,0,0,1.7-.6,3.4-.8,5-.6h0c2.9.2,5.8,1.4,8.1,3.6h0Z"/>
        <path class="st2" d="M-334.5,437.9c1.1,4.3,0,8.6-2.8,11.6-.3.3-.6.6-.9.9,0,0,0,0-.1,0h0c-1.7-.3-3.2-1-4.5-1.9-2.5-1.6-4.5-4.2-5.3-7.3-1-3.9-.1-7.9,2.2-10.9.4-.6.9-1.2,1.5-1.7h0c0,0,0,0,0,0,1.8.3,3.3,1,4.6,2h0c2.5,1.6,4.4,4.1,5.2,7.2h0Z"/>
        <path class="st2" d="M-308,441.6c-1.1,4.2-4.4,7.4-8.3,8.6-.4.1-.8.3-1.2.4,0,0,0,0-.1,0,0,0,0,0,0,0-1.3-1.1-2.2-2.4-2.9-3.9-1.4-2.7-1.8-5.9-1-9,1.1-3.9,3.9-6.9,7.3-8.3.7-.3,1.4-.5,2.1-.7,0,0,0,0,.1,0,0,0,0,0,0,0,1.4,1.1,2.4,2.5,3,4h0c1.3,2.7,1.7,5.8.9,8.8h0Z"/>
        <path class="st2" d="M-286.9,458.1c-3.1,3.1-7.5,4.2-11.5,3.3-.4,0-.8-.2-1.2-.3,0,0,0,0-.1,0,0,0,0,0,0,0-.5-1.6-.7-3.2-.6-4.8.1-3,1.4-6,3.7-8.3,2.9-2.9,6.8-4,10.5-3.5.7,0,1.5.2,2.2.5,0,0,0,0,.1,0,0,0,0,0,0,0,.6,1.7.8,3.4.6,5h0c-.2,3-1.4,5.8-3.7,8.1h0Z"/>
        <path class="st2" d="M-277,482.9c-4.3,1.1-8.6-.1-11.6-2.9-.3-.3-.6-.6-.9-.9,0,0,0,0,0-.1h0c.3-1.7,1-3.2,1.9-4.5,1.6-2.5,4.2-4.5,7.3-5.3,3.9-1,7.9,0,10.9,2.2.6.4,1.2.9,1.7,1.5h0c0,.1,0,.1,0,.1-.3,1.8-1,3.3-2,4.6h0c-1.6,2.5-4.1,4.4-7.2,5.2h0Z"/>
        <path class="st2" d="M-280.8,509.4c-4.2-1.2-7.4-4.4-8.6-8.3-.1-.4-.2-.8-.4-1.2,0,0,0,0,0-.1,0,0,0,0,0,0,1.1-1.3,2.4-2.2,3.9-2.9,2.7-1.4,5.9-1.8,9-.9,3.9,1.1,6.9,3.9,8.3,7.4.3.7.5,1.4.7,2.1,0,0,0,0,0,.1,0,0,0,0,0,0-1.2,1.4-2.5,2.4-4,3h0c-2.6,1.3-5.8,1.7-8.8.8h0Z"/>
        <path class="st2" d="M-297.3,530.4c-3.1-3.1-4.2-7.5-3.3-11.5,0-.4.2-.8.3-1.2,0,0,0,0,0-.1,0,0,0,0,0,0,1.6-.5,3.2-.7,4.8-.6,3,.2,6,1.4,8.3,3.7,2.8,2.9,4,6.8,3.5,10.5,0,.7-.2,1.5-.5,2.2,0,0,0,0,0,0,0,0,0,0,0,0-1.7.6-3.4.8-5,.6h0c-2.9-.2-5.8-1.4-8.1-3.7h0Z"/>
        <path class="st2" d="M-322.2,540.3c-1.1-4.3.1-8.6,2.9-11.6.3-.3.6-.6.9-.9,0,0,0,0,.1,0h0c1.7.3,3.2,1,4.4,1.9,2.5,1.6,4.5,4.2,5.3,7.3,1,3.9,0,7.9-2.3,10.8-.4.6-.9,1.2-1.5,1.7,0,0,0,0,0,0,0,0,0,0,0,0-1.8-.3-3.3-1-4.6-2h0c-2.5-1.7-4.3-4.2-5.1-7.2h0Z"/>
        <path class="st2" d="M-348.6,536.4c1.2-4.2,4.4-7.4,8.3-8.6.4-.1.8-.2,1.2-.3,0,0,0,0,.1,0,0,0,0,0,0,0,1.3,1.1,2.2,2.5,2.9,3.9,1.4,2.7,1.8,5.9.9,9-1.1,3.9-3.9,6.8-7.4,8.2-.7.3-1.4.5-2.1.7,0,0,0,0-.1,0,0,0,0,0,0,0-1.4-1.2-2.3-2.5-3-4h0c-1.3-2.7-1.7-5.8-.8-8.8h0Z"/>
        <path class="st2" d="M-369.6,519.7c3.1-3.1,7.5-4.2,11.5-3.2.4,0,.8.2,1.2.3,0,0,0,0,.1,0,0,0,0,0,0,0,.5,1.6.7,3.2.6,4.8-.2,3-1.4,6-3.7,8.2-2.9,2.8-6.8,4-10.5,3.4-.7,0-1.5-.2-2.2-.5,0,0,0,0-.1,0,0,0,0,0,0,0-.6-1.7-.8-3.4-.6-5h0c.2-3,1.5-5.8,3.7-8h0Z"/>
        <path class="st2" d="M-379.4,494.8c4.3-1.1,8.6.2,11.6,3,.3.3.6.6.9.9,0,0,0,0,0,.1h0c-.4,1.7-1,3.2-1.9,4.5-1.6,2.5-4.2,4.5-7.4,5.3-3.9,1-7.9,0-10.8-2.3-.6-.4-1.2-.9-1.7-1.5,0,0,0,0,0,0,0,0,0,0,0,0,.3-1.8,1-3.3,2-4.6h0c1.7-2.5,4.2-4.3,7.3-5.1h0Z"/>
        <path class="st2" d="M-375.4,468.4c4.2,1.2,7.4,4.5,8.5,8.4.1.4.2.8.3,1.2,0,0,0,0,0,.1h0c-1.1,1.3-2.5,2.2-3.9,2.9-2.7,1.4-5.9,1.7-9,.9-3.9-1.1-6.8-3.9-8.2-7.4-.3-.7-.5-1.4-.7-2.1,0,0,0,0,0-.1,0,0,0,0,0,0,1.2-1.4,2.5-2.3,4-3h0c2.7-1.3,5.8-1.6,8.8-.8h0Z"/>
      </g>
      <g>
        <path class="st5" d="M-339.8,473.7c1.2,1.2,1.6,2.8,1.3,4.3,0,.1,0,.3-.1.5,0,0,0,0,0,0h0c-.6.2-1.2.3-1.8.2-1.1,0-2.2-.5-3.1-1.4-1.1-1.1-1.5-2.5-1.3-3.9,0-.3,0-.5.2-.8,0,0,0,0,0,0,0,0,0,0,0,0,.6-.2,1.3-.3,1.9-.2h0c1.1,0,2.2.5,3,1.4h0Z"/>
        <path class="st5" d="M-330.5,469.9c.4,1.6,0,3.2-1.1,4.4-.1.1-.2.2-.3.4s0,0,0,0h0c-.6-.1-1.2-.4-1.7-.7-1-.6-1.7-1.6-2-2.7-.4-1.5,0-3,.8-4.1.2-.2.4-.4.6-.6h0s0,0,0,0c.7.1,1.2.4,1.7.7h0c.9.6,1.6,1.5,1.9,2.7h0Z"/>
        <path class="st5" d="M-320.6,471.3c-.4,1.6-1.6,2.8-3.1,3.2-.1,0-.3.1-.5.1,0,0,0,0,0,0h0c-.5-.4-.8-.9-1.1-1.4-.5-1-.7-2.2-.4-3.4.4-1.5,1.4-2.6,2.8-3.1.2-.1.5-.2.8-.3h0s0,0,0,0c.5.4.9,1,1.1,1.5h0c.5,1,.6,2.2.3,3.3h0Z"/>
        <path class="st5" d="M-312.7,477.5c-1.2,1.2-2.8,1.6-4.3,1.2-.1,0-.3,0-.5-.1,0,0,0,0,0,0h0c-.2-.6-.3-1.2-.2-1.8,0-1.1.5-2.2,1.4-3.1,1.1-1.1,2.5-1.5,3.9-1.3.3,0,.5,0,.8.2,0,0,0,0,0,0,0,0,0,0,0,0,.2.6.3,1.3.2,1.9h0c0,1.1-.5,2.2-1.4,3h0Z"/>
        <path class="st5" d="M-309,486.8c-1.6.4-3.2,0-4.4-1.1-.1-.1-.2-.2-.3-.3,0,0,0,0,0,0h0c.1-.6.4-1.2.7-1.7.6-1,1.6-1.7,2.8-2,1.5-.4,3,0,4.1.8.2.2.4.4.6.6h0c-.1.7-.4,1.3-.7,1.8h0c-.6.9-1.5,1.6-2.7,1.9h0Z"/>
        <path class="st5" d="M-310.4,496.7c-1.6-.4-2.8-1.6-3.2-3.1,0-.1-.1-.3-.1-.5,0,0,0,0,0,0h0c.4-.5.9-.9,1.5-1.1,1-.5,2.2-.7,3.4-.4,1.5.4,2.6,1.5,3.1,2.8.1.2.2.5.3.8h0s0,0,0,0c-.4.5-1,.9-1.5,1.1h0c-1,.5-2.2.6-3.3.3h0Z"/>
        <path class="st5" d="M-316.6,504.6c-1.2-1.2-1.6-2.8-1.2-4.3,0-.1,0-.3.1-.5,0,0,0,0,0,0h0c.6-.2,1.2-.3,1.8-.2,1.1,0,2.2.5,3.1,1.4,1.1,1.1,1.5,2.5,1.3,3.9,0,.3,0,.5-.2.8,0,0,0,0,0,0h0c-.6.2-1.3.3-1.9.2h0c-1.1,0-2.2-.5-3-1.4h0Z"/>
        <path class="st5" d="M-325.9,508.3c-.4-1.6,0-3.2,1.1-4.4.1-.1.2-.2.3-.3s0,0,0,0h0c.6.1,1.2.4,1.7.7,1,.6,1.7,1.6,2,2.8.4,1.5,0,3-.9,4.1-.2.2-.4.4-.6.6h0s0,0,0,0c-.7-.1-1.2-.4-1.7-.8h0c-.9-.6-1.6-1.6-1.9-2.7h0Z"/>
        <path class="st5" d="M-335.9,506.8c.4-1.6,1.7-2.8,3.1-3.2.1,0,.3,0,.5-.1,0,0,0,0,0,0h0c.5.4.8.9,1.1,1.5.5,1,.7,2.2.3,3.4-.4,1.5-1.5,2.6-2.8,3.1-.2.1-.5.2-.8.3h0s0,0,0,0c-.5-.4-.9-1-1.1-1.5h0c-.5-1-.6-2.2-.3-3.3h0Z"/>
        <path class="st5" d="M-343.7,500.6c1.2-1.1,2.8-1.6,4.3-1.2.1,0,.3,0,.5.1,0,0,0,0,0,0h0c.2.6.3,1.2.2,1.8,0,1.1-.5,2.2-1.4,3.1-1.1,1.1-2.5,1.5-3.9,1.3-.3,0-.5,0-.8-.2,0,0,0,0,0,0h0c-.2-.7-.3-1.3-.2-1.9h0c0-1.1.5-2.2,1.4-3h0Z"/>
        <path class="st5" d="M-347.4,491.2c1.6-.4,3.2,0,4.4,1.1.1.1.2.2.3.3,0,0,0,0,0,0h0c-.1.6-.4,1.2-.7,1.7-.6.9-1.6,1.7-2.8,2-1.5.4-3,0-4.1-.9-.2-.2-.4-.4-.6-.6h0c.1-.7.4-1.3.8-1.8h0c.6-.9,1.6-1.6,2.7-1.9h0Z"/>
        <path class="st5" d="M-345.9,481.3c1.6.5,2.8,1.7,3.2,3.1,0,.1,0,.3.1.5,0,0,0,0,0,0h0c-.4.5-.9.8-1.5,1.1-1,.5-2.2.6-3.4.3-1.5-.4-2.6-1.5-3.1-2.8-.1-.2-.2-.5-.3-.8h0s0,0,0,0c.4-.5,1-.9,1.5-1.1h0c1-.5,2.2-.6,3.3-.3h0Z"/>
      </g>
    </g>
  </g>
  <g>
    <g>
      <g>
        <path class="st4" d="M417.3,527.3c2.6-5.1,6.2-9.1,10.8-11.8s9.6-4.1,15.2-4.1,9.2,1,12.8,3c3.7,2,6.6,4.5,8.8,7.4v-9.3h16.7v65.5h-16.7v-9.6c-2.1,3.1-5.1,5.6-8.8,7.6s-8,3-12.9,3-10.5-1.4-15.1-4.2c-4.5-2.8-8.1-6.8-10.8-12s-4-11.1-4-17.8,1.3-12.5,4-17.6ZM462.5,534.8c-1.6-2.9-3.7-5.1-6.4-6.6s-5.5-2.3-8.6-2.3-5.9.8-8.5,2.2-4.7,3.7-6.3,6.6c-1.6,2.9-2.4,6.3-2.4,10.2s.8,7.4,2.4,10.3c1.6,3,3.7,5.2,6.4,6.8,2.6,1.6,5.5,2.4,8.5,2.4s6-.8,8.6-2.3c2.7-1.5,4.8-3.7,6.4-6.6,1.6-2.9,2.4-6.3,2.4-10.3s-.8-7.5-2.4-10.3h0Z"/>
        <path class="st4" d="M552.9,518.8c4.8,4.9,7.2,11.8,7.2,20.6v38.4h-16.5v-36.2c0-5.2-1.3-9.2-3.9-12-2.6-2.8-6.1-4.2-10.6-4.2s-8.2,1.4-10.8,4.2c-2.6,2.8-4,6.8-4,12v36.2h-16.5v-65.5h16.5v8.2c2.2-2.8,5-5.1,8.5-6.7,3.4-1.6,7.2-2.4,11.3-2.4,7.8,0,14.1,2.5,18.9,7.4h0Z"/>
        <path class="st4" d="M592.4,524v53.9h-16.5v-53.9h16.5Z"/>
        <path class="st4" d="M647.4,577.8l-22.2-27.9v27.9h-16.5v-87.4h16.5v49.7l22-27.8h21.5l-28.8,32.8,29.1,32.6h-21.5Z"/>
        <path class="st4" d="M478,654.3h-47.9c.4,4.7,2,8.4,5,11.1s6.5,4,10.8,4c6.1,0,10.5-2.6,13.1-7.9h17.8c-1.9,6.3-5.5,11.5-10.9,15.5s-11.9,6.1-19.7,6.1-12-1.4-17-4.2c-5-2.8-8.9-6.8-11.7-11.9-2.8-5.1-4.2-11-4.2-17.7s1.4-12.7,4.1-17.8c2.8-5.1,6.6-9.1,11.6-11.8s10.7-4.1,17.1-4.1,11.8,1.3,16.7,4,8.7,6.5,11.5,11.4c2.7,4.9,4.1,10.6,4.1,17s-.2,4.5-.5,6.4h0ZM461.4,643.2c0-4.2-1.6-7.7-4.6-10.2s-6.7-3.8-11-3.8-7.5,1.2-10.3,3.7-4.5,5.9-5.1,10.3h31.1Z"/>
        <path class="st4" d="M545.7,623c4.8,4.9,7.2,11.8,7.2,20.6v38.4h-16.5v-36.2c0-5.2-1.3-9.2-3.9-12-2.6-2.8-6.1-4.2-10.6-4.2s-8.2,1.4-10.8,4.2c-2.6,2.8-4,6.8-4,12v36.2h-16.5v-65.5h16.5v8.2c2.2-2.8,5-5.1,8.4-6.7,3.4-1.6,7.2-2.4,11.3-2.4,7.8,0,14.1,2.5,18.9,7.4h0Z"/>
        <path class="st4" d="M587.9,630.2v31.7c0,2.2.5,3.8,1.6,4.8,1.1,1,2.8,1.5,5.4,1.5h7.7v13.9h-10.4c-13.9,0-20.9-6.8-20.9-20.3v-31.5h-7.8v-13.6h7.8v-16.2h16.7v16.2h14.7v13.6h-14.7Z"/>
        <path class="st4" d="M676.3,616.6v65.5h-16.7v-8.3c-2.1,2.8-4.9,5.1-8.3,6.7-3.4,1.6-7.2,2.4-11.2,2.4s-9.7-1.1-13.6-3.2-7-5.4-9.3-9.6-3.4-9.2-3.4-15.1v-38.4h16.5v36c0,5.2,1.3,9.2,3.9,12,2.6,2.8,6.1,4.2,10.6,4.2s8.2-1.4,10.8-4.2c2.6-2.8,3.9-6.8,3.9-12v-36h16.7Z"/>
        <path class="st4" d="M717.5,618.6c3.4-2,7.3-3,11.8-3v17.4h-4.4c-5.2,0-9.1,1.2-11.8,3.7s-4,6.7-4,12.8v32.6h-16.5v-65.5h16.5v10.2c2.1-3.5,4.9-6.2,8.3-8.2h0Z"/>
        <path class="st4" d="M800.7,654.3h-47.8c.4,4.7,2,8.4,5,11.1,2.9,2.7,6.5,4,10.8,4,6.1,0,10.5-2.6,13.1-7.9h17.8c-1.9,6.3-5.5,11.5-10.9,15.5-5.4,4.1-11.9,6.1-19.7,6.1s-12-1.4-17-4.2c-5-2.8-8.9-6.8-11.7-11.9s-4.2-11-4.2-17.7,1.4-12.7,4.1-17.8c2.8-5.1,6.6-9.1,11.6-11.8s10.7-4.1,17.1-4.1,11.8,1.3,16.7,4c4.9,2.7,8.7,6.5,11.5,11.4,2.7,4.9,4.1,10.6,4.1,17s-.2,4.5-.5,6.4h0ZM784,643.2c0-4.2-1.6-7.7-4.6-10.2s-6.7-3.8-11-3.8-7.5,1.2-10.3,3.7c-2.8,2.5-4.5,5.9-5.1,10.3h31.1Z"/>
        <path class="st4" d="M823.8,680.2c-4.2-1.9-7.6-4.5-10.1-7.9s-3.8-7-4.1-11h16.7c.3,2.5,1.5,4.6,3.7,6.3s4.9,2.5,8.1,2.5,5.6-.6,7.4-1.9,2.7-2.9,2.7-4.8-1.1-3.7-3.2-4.8c-2.2-1.1-5.6-2.2-10.3-3.5-4.9-1.2-8.9-2.4-12-3.7-3.1-1.3-5.8-3.2-8-5.8-2.2-2.6-3.4-6.1-3.4-10.5s1-6.9,3.1-9.9,5.1-5.4,9-7.1c3.9-1.7,8.5-2.6,13.8-2.6,7.8,0,14,2,18.7,5.8,4.7,3.9,7.2,9.2,7.7,15.8h-15.8c-.2-2.6-1.3-4.7-3.2-6.2-1.9-1.5-4.5-2.3-7.7-2.3s-5.3.5-6.9,1.7c-1.6,1.1-2.4,2.6-2.4,4.6s1.1,3.9,3.3,5c2.2,1.1,5.6,2.3,10.3,3.5,4.7,1.2,8.6,2.4,11.7,3.7,3.1,1.3,5.7,3.2,8,5.8,2.2,2.6,3.4,6.1,3.5,10.5,0,3.8-1,7.2-3.1,10.2s-5.1,5.3-9,7c-3.9,1.7-8.5,2.5-13.7,2.5s-10.2-1-14.4-2.9h0Z"/>
      </g>
      <path class="st4" d="M412.2,482.2l-73.7,200.8h-48.9l-73.7-200.9h43.2l55.2,159.7,55-159.7h42.9,0Z"/>
      <circle class="st1" cx="584.1" cy="503.6" r="8.6"/>
    </g>
    <g>
      <g>
        <path class="st3" d="M782.2,413.7c0,6.5-3.4,12.2-8.5,15.5-.5.4-1,.7-1.6,1,0,0-.1,0-.2,0,0,0,0,0,0,0-2.3-1.1-4.1-2.6-5.6-4.4-3-3.3-4.8-7.6-4.8-12.4s2.8-11.3,7.2-14.6c.8-.7,1.8-1.3,2.8-1.9,0,0,0,0,.1,0,0,0,0,0,.1,0,2.4,1.1,4.3,2.7,5.8,4.5h0c2.9,3.3,4.6,7.5,4.6,12.2h0Z"/>
        <path class="st3" d="M818.6,429.1c-3.3,5.6-9,8.9-15.1,9.2-.6,0-1.2,0-1.9,0h-.2s0,0,0,0c-1.4-2.1-2.3-4.3-2.7-6.6-1-4.3-.3-9,2-13.2,3-5.2,8.1-8.3,13.6-9,1.1-.2,2.2-.2,3.3-.2h.2s0,0,0,.1c1.5,2.2,2.4,4.5,2.8,6.9h0c.9,4.3.2,8.9-2.1,12.9h0Z"/>
        <path class="st3" d="M842.3,460.6c-5.6,3.2-12.3,3.2-17.7.4-.6-.3-1.1-.6-1.7-.9,0,0-.1,0-.2-.1h0c-.2-2.6.2-4.9,1-7.1,1.3-4.2,4.2-8,8.4-10.4,5.2-3,11.2-3.1,16.3-1,1,.4,2,.9,3,1.5,0,0,0,0,.1,0h0c.2,2.7-.2,5.2-1,7.5h0c-1.4,4.1-4.2,7.8-8.3,10.1h0Z"/>
        <path class="st3" d="M847.1,499.7c-6.5,0-12.2-3.4-15.5-8.5-.3-.5-.7-1-1-1.6,0,0,0-.1,0-.2,0,0,0,0,0,0,1.1-2.3,2.6-4.1,4.4-5.6,3.3-3,7.7-4.8,12.5-4.8,6,0,11.3,2.9,14.6,7.3.7.9,1.3,1.8,1.8,2.8,0,0,0,0,0,.1,0,0,0,0,0,.1-1.1,2.4-2.7,4.3-4.6,5.8h0c-3.3,2.9-7.5,4.6-12.2,4.6h0Z"/>
        <path class="st3" d="M831.7,536c-5.6-3.3-8.8-9.1-9.1-15.1,0-.6,0-1.2,0-1.9v-.2s0,0,0,0c2.1-1.4,4.3-2.3,6.6-2.7,4.3-.9,9-.3,13.2,2.1,5.2,3,8.3,8.1,9,13.6.2,1.1.2,2.2.2,3.3v.2s0,0,0,0c-2.2,1.5-4.5,2.4-6.9,2.8h0c-4.3.8-8.8.2-12.9-2.2h0Z"/>
        <path class="st3" d="M800.1,559.7c-3.2-5.7-3.1-12.3-.3-17.7.3-.6.6-1.1.9-1.7,0,0,0-.1,0-.2h0c2.5-.2,4.9.2,7,1,4.2,1.4,8,4.3,10.3,8.4,3,5.2,3.1,11.2,1,16.3-.4,1-.9,2-1.5,3,0,0,0,0,0,.1h-.1c-2.6.2-5.1-.2-7.3-1h0c-4.1-1.4-7.8-4.3-10.1-8.3h0Z"/>
        <path class="st3" d="M760.9,564.3c0-6.5,3.5-12.2,8.6-15.4.5-.3,1.1-.7,1.6-1,0,0,.1,0,.2,0,0,0,0,0,0,0,2.2,1.1,4.1,2.6,5.6,4.4,3,3.3,4.8,7.7,4.7,12.5,0,6-2.9,11.2-7.3,14.6-.8.7-1.8,1.3-2.8,1.8,0,0,0,0-.1,0,0,0,0,0-.1,0-2.4-1.1-4.3-2.7-5.8-4.6h0c-2.9-3.3-4.6-7.6-4.5-12.3h0Z"/>
        <path class="st3" d="M724.7,548.7c3.3-5.6,9.1-8.8,15.2-9.1.6,0,1.2,0,1.9,0h.2s0,0,0,0c1.4,2.1,2.2,4.3,2.6,6.6.9,4.3.3,9-2.2,13.2-3,5.1-8.2,8.3-13.7,8.9-1.1.2-2.2.2-3.3.2h-.2s0,0,0,0c-1.5-2.2-2.4-4.5-2.7-6.9h0c-.8-4.3-.2-8.9,2.2-12.9h0Z"/>
        <path class="st3" d="M701.2,517c5.7-3.2,12.3-3.1,17.7-.3.6.3,1.1.6,1.6.9,0,0,.1,0,.2,0h0c.2,2.6-.2,4.9-1,7.1-1.4,4.2-4.3,8-8.5,10.3-5.2,2.9-11.2,3.1-16.3.9-1-.4-2-.9-3-1.5,0,0,0,0-.1,0h0c-.2-2.7.2-5.2,1.1-7.5h0c1.4-4.1,4.3-7.8,8.4-10.1h0Z"/>
        <path class="st3" d="M696.7,477.8c6.5,0,12.2,3.5,15.4,8.6.3.5.7,1.1,1,1.6,0,0,0,.1,0,.2,0,0,0,0,0,0-1.1,2.2-2.6,4.1-4.4,5.6-3.3,3-7.7,4.7-12.5,4.7-6,0-11.2-3-14.6-7.4-.7-.9-1.3-1.8-1.8-2.8,0,0,0,0,0-.1,0,0,0,0,0-.1,1.1-2.4,2.7-4.3,4.6-5.8h0c3.3-2.9,7.6-4.6,12.3-4.5h0Z"/>
        <path class="st3" d="M712.4,441.7c5.6,3.3,8.8,9.1,9,15.2,0,.6,0,1.2,0,1.9v.2s0,0,0,0c-2.1,1.4-4.3,2.2-6.6,2.6-4.3.9-9,.2-13.2-2.2-5.1-3-8.2-8.2-8.9-13.7-.2-1.1-.2-2.2-.2-3.3h0c0-.2,0-.2,0-.2,2.2-1.5,4.5-2.4,6.9-2.7h0c4.3-.8,8.8-.1,12.9,2.3h0Z"/>
        <path class="st3" d="M744.2,418.2c3.2,5.7,3,12.3.2,17.6-.3.6-.6,1.1-.9,1.6,0,0,0,.1,0,.2h0c-2.5.1-4.9-.2-7-1-4.2-1.4-8-4.3-10.3-8.5-2.9-5.2-3-11.2-.8-16.3.4-1,.9-2,1.5-3,0,0,0,0,0-.1h.1c2.6-.2,5.1.2,7.3,1.1h0c4.1,1.4,7.7,4.3,10,8.4h0Z"/>
      </g>
      <g>
        <path class="st6" d="M776.6,454.9c0,3-1.5,5.5-3.8,7-.2.2-.5.3-.7.4,0,0,0,0,0,0,0,0,0,0,0,0-1-.5-1.9-1.2-2.5-2-1.4-1.5-2.2-3.5-2.2-5.6s1.3-5.1,3.3-6.6c.4-.3.8-.6,1.3-.8h0s0,0,0,0c1.1.5,2,1.2,2.7,2.1h0c1.3,1.5,2.1,3.4,2.1,5.5h0Z"/>
        <path class="st6" d="M793,461.9c-1.5,2.5-4.1,4-6.8,4.2-.3,0-.6,0-.8,0h0s0,0,0,0c-.6-1-1-2-1.2-3-.4-2-.2-4.1.9-6,1.4-2.3,3.7-3.8,6.2-4.1.5,0,1-.1,1.5-.1h0s0,0,0,0c.7,1,1.1,2,1.3,3.1h0c.4,1.9.1,4-1,5.9h0Z"/>
        <path class="st6" d="M803.8,476.1c-2.5,1.5-5.6,1.4-8,.2-.2-.1-.5-.3-.8-.4,0,0,0,0,0,0h0c0-1.2,0-2.2.4-3.2.6-1.9,1.9-3.6,3.8-4.7,2.3-1.4,5.1-1.4,7.4-.5.5.2.9.4,1.4.7,0,0,0,0,0,0h0c0,1.2,0,2.4-.5,3.4h0c-.6,1.9-1.9,3.5-3.8,4.6h0Z"/>
        <path class="st6" d="M806,493.9c-3,0-5.5-1.5-7-3.9-.2-.2-.3-.5-.4-.7,0,0,0,0,0,0,0,0,0,0,0,0,.5-1,1.2-1.9,2-2.5,1.5-1.4,3.5-2.2,5.7-2.2,2.7,0,5.1,1.3,6.6,3.3.3.4.6.8.8,1.3,0,0,0,0,0,0,0,0,0,0,0,0-.5,1.1-1.2,2-2.1,2.6h0c-1.5,1.3-3.4,2.1-5.5,2.1h0Z"/>
        <path class="st6" d="M799,510.3c-2.5-1.5-4-4.1-4.1-6.9,0-.3,0-.6,0-.9h0c0,0,0,0,0-.1,1-.6,2-1,3-1.2,2-.4,4.1-.1,6,1,2.3,1.4,3.8,3.7,4.1,6.2,0,.5.1,1,0,1.5h0c0,0,0,0,0,.1-1,.7-2,1.1-3.1,1.2h0c-1.9.4-4,0-5.8-1h0Z"/>
        <path class="st6" d="M784.7,521c-1.5-2.6-1.4-5.6-.2-8,.1-.2.3-.5.4-.8,0,0,0,0,0,0h0c1.1,0,2.2,0,3.2.5,1.9.6,3.6,1.9,4.7,3.8,1.3,2.3,1.4,5.1.4,7.4-.2.5-.4.9-.7,1.3,0,0,0,0,0,0h0c-1.2,0-2.3,0-3.3-.5h0c-1.9-.6-3.5-1.9-4.6-3.8h0Z"/>
        <path class="st6" d="M766.9,523.2c0-3,1.6-5.5,3.9-7,.2-.2.5-.3.7-.4,0,0,0,0,0,0,0,0,0,0,0,0,1,.5,1.9,1.2,2.5,2,1.3,1.5,2.2,3.5,2.2,5.7,0,2.7-1.3,5.1-3.3,6.6-.4.3-.8.6-1.3.8,0,0,0,0,0,0,0,0,0,0,0,0-1.1-.5-2-1.2-2.6-2.1h0c-1.3-1.5-2.1-3.4-2.1-5.6Z"/>
        <path class="st6" d="M750.5,516.1c1.5-2.5,4.1-4,6.9-4.1.3,0,.6,0,.8,0h0s0,0,0,0c.6.9,1,2,1.2,3,.4,2,.1,4.1-1,6-1.4,2.3-3.7,3.8-6.2,4-.5,0-1,.1-1.5,0h0s0,0,0,0c-.7-1-1.1-2-1.2-3.1h0c-.4-1.9,0-4,1-5.8h0Z"/>
        <path class="st6" d="M739.8,501.7c2.6-1.5,5.6-1.4,8-.1.2.1.5.3.7.4,0,0,0,0,0,0h0c0,1.2,0,2.2-.5,3.2-.6,1.9-1.9,3.6-3.8,4.7-2.4,1.3-5.1,1.4-7.4.4-.5-.2-.9-.4-1.3-.7,0,0,0,0,0,0h0c0-1.2,0-2.4.5-3.4h0c.6-1.9,1.9-3.5,3.8-4.5h0Z"/>
        <path class="st6" d="M737.8,484c3,0,5.5,1.6,7,3.9.2.2.3.5.4.7,0,0,0,0,0,0,0,0,0,0,0,0-.5,1-1.2,1.9-2,2.5-1.5,1.3-3.5,2.1-5.7,2.1-2.7,0-5.1-1.3-6.6-3.4-.3-.4-.6-.8-.8-1.3,0,0,0,0,0,0,0,0,0,0,0,0,.5-1.1,1.2-2,2.1-2.6h0c1.5-1.3,3.4-2.1,5.6-2h0Z"/>
        <path class="st6" d="M744.9,467.6c2.5,1.5,4,4.1,4.1,6.9,0,.3,0,.6,0,.9h0c0,0,0,0,0,.1-1,.6-2,1-3,1.2-2,.4-4.1.1-6-1-2.3-1.4-3.7-3.7-4-6.2,0-.5,0-1,0-1.5h0c0,0,0,0,0-.1,1-.7,2-1.1,3.1-1.2h0c1.9-.4,4,0,5.8,1h0Z"/>
        <path class="st6" d="M759.3,457c1.4,2.6,1.4,5.6,0,8-.1.2-.3.5-.4.7,0,0,0,0,0,0h0c-1.1,0-2.2-.1-3.2-.5-1.9-.6-3.6-2-4.7-3.9-1.3-2.4-1.4-5.1-.4-7.4.2-.5.4-.9.7-1.4,0,0,0,0,0,0h0c1.2,0,2.3.1,3.3.5h0c1.9.6,3.5,2,4.5,3.8h0Z"/>
      </g>
      <g>
        <path class="st2" d="M740.7,448c3.1,3.1,4.2,7.5,3.4,11.5,0,.4-.2.8-.3,1.2,0,0,0,0,0,.1,0,0,0,0,0,0-1.6.6-3.2.7-4.8.6-3-.1-6-1.4-8.3-3.6-2.9-2.9-4-6.8-3.5-10.5,0-.7.2-1.5.4-2.2,0,0,0,0,0-.1,0,0,0,0,0,0,1.7-.6,3.4-.8,5-.6h0c2.9.2,5.8,1.4,8.1,3.6h0Z"/>
        <path class="st2" d="M765.5,437.9c1.1,4.3,0,8.6-2.8,11.6-.3.3-.6.6-.9.9,0,0,0,0,0,0h0c-1.7-.3-3.2-1-4.5-1.9-2.5-1.6-4.5-4.2-5.3-7.3-1-3.9-.1-7.9,2.2-10.9.4-.6.9-1.2,1.5-1.7,0,0,0,0,0,0,0,0,0,0,0,0,1.8.3,3.3,1,4.6,2h0c2.5,1.6,4.3,4.1,5.2,7.2h0Z"/>
        <path class="st2" d="M792,441.6c-1.2,4.2-4.4,7.4-8.3,8.6-.4.1-.8.3-1.2.4,0,0,0,0-.1,0,0,0,0,0,0,0-1.3-1.1-2.2-2.4-2.9-3.9-1.4-2.7-1.8-5.9-1-9,1.1-3.9,3.8-6.9,7.3-8.3.7-.3,1.4-.5,2.1-.7,0,0,0,0,0,0,0,0,0,0,0,0,1.4,1.1,2.4,2.5,3,4h0c1.3,2.7,1.7,5.8.9,8.8h0Z"/>
        <path class="st2" d="M813.1,458.1c-3.1,3.1-7.5,4.2-11.5,3.3-.4,0-.8-.2-1.2-.3,0,0,0,0-.1,0,0,0,0,0,0,0-.5-1.6-.7-3.2-.6-4.8.1-3,1.4-6,3.7-8.3,2.9-2.9,6.8-4,10.5-3.5.7,0,1.5.2,2.2.5,0,0,0,0,0,0,0,0,0,0,0,0,.6,1.7.8,3.4.6,5h0c-.2,3-1.4,5.8-3.7,8.1h0Z"/>
        <path class="st2" d="M823,482.9c-4.3,1.1-8.6-.1-11.6-2.9-.3-.3-.6-.6-.9-.9,0,0,0,0,0-.1h0c.3-1.7,1-3.2,1.9-4.5,1.6-2.5,4.2-4.5,7.3-5.3,3.9-1,7.9,0,10.8,2.2.6.4,1.2.9,1.7,1.5,0,0,0,0,0,0,0,0,0,0,0,0-.3,1.8-1,3.3-2,4.6h0c-1.6,2.5-4.1,4.4-7.2,5.2h0Z"/>
        <path class="st2" d="M819.2,509.4c-4.2-1.2-7.4-4.4-8.6-8.3-.1-.4-.2-.8-.3-1.2,0,0,0,0,0-.1,0,0,0,0,0,0,1.1-1.3,2.4-2.2,3.9-2.9,2.7-1.4,5.9-1.8,9-.9,3.9,1.1,6.9,3.9,8.3,7.4.3.7.5,1.4.7,2.1,0,0,0,0,0,.1,0,0,0,0,0,0-1.2,1.4-2.5,2.4-4,3h0c-2.7,1.3-5.8,1.7-8.8.8h0Z"/>
        <path class="st2" d="M802.7,530.4c-3.1-3.1-4.2-7.5-3.3-11.5,0-.4.2-.8.3-1.2,0,0,0,0,0-.1,0,0,0,0,0,0,1.6-.5,3.2-.7,4.8-.6,3,.2,6,1.4,8.3,3.7,2.8,2.9,4,6.8,3.5,10.5,0,.7-.2,1.5-.5,2.2,0,0,0,0,0,0,0,0,0,0,0,0-1.7.6-3.4.8-5,.6h0c-2.9-.2-5.8-1.4-8.1-3.7h0Z"/>
        <path class="st2" d="M777.8,540.3c-1.1-4.3.1-8.6,2.9-11.6.3-.3.6-.6.9-.9,0,0,0,0,0,0h0c1.7.3,3.2,1,4.4,1.9,2.5,1.6,4.5,4.2,5.3,7.3,1,3.9,0,7.9-2.3,10.8-.4.6-.9,1.2-1.5,1.7,0,0,0,0,0,0,0,0,0,0,0,0-1.8-.3-3.3-1-4.6-2h0c-2.5-1.7-4.3-4.2-5.1-7.2h0Z"/>
        <path class="st2" d="M751.4,536.4c1.2-4.2,4.4-7.4,8.3-8.6.4-.1.8-.2,1.2-.3,0,0,0,0,.1,0h0c1.3,1.2,2.2,2.5,2.9,3.9,1.4,2.7,1.8,5.9.9,9-1.1,3.9-3.9,6.8-7.4,8.2-.7.3-1.4.5-2.2.7,0,0,0,0,0,0,0,0,0,0,0,0-1.3-1.2-2.3-2.5-3-4h0c-1.3-2.7-1.7-5.8-.8-8.8h0Z"/>
        <path class="st2" d="M730.4,519.7c3.2-3.1,7.5-4.2,11.5-3.2.4,0,.8.2,1.2.3,0,0,0,0,.1,0,0,0,0,0,0,0,.5,1.6.7,3.2.6,4.8-.2,3-1.4,6-3.7,8.2-2.9,2.8-6.8,4-10.5,3.4-.7,0-1.5-.2-2.2-.5,0,0,0,0,0,0,0,0,0,0,0,0-.6-1.7-.8-3.4-.6-5h0c.2-3,1.5-5.8,3.7-8h0Z"/>
        <path class="st2" d="M720.6,494.8c4.3-1.1,8.6.2,11.6,3,.3.3.6.6.9.9,0,0,0,0,0,.1h0c-.3,1.7-1,3.2-1.9,4.5-1.7,2.5-4.2,4.5-7.4,5.3-3.9,1-7.9,0-10.8-2.3-.6-.4-1.2-.9-1.7-1.5,0,0,0,0,0,0,0,0,0,0,0,0,.3-1.8,1-3.3,2-4.6h0c1.7-2.5,4.2-4.3,7.3-5.1h0Z"/>
        <path class="st2" d="M724.6,468.4c4.2,1.2,7.3,4.5,8.5,8.4.1.4.2.8.3,1.2,0,0,0,0,0,.1,0,0,0,0,0,0-1.1,1.3-2.5,2.2-3.9,2.9-2.7,1.4-5.9,1.7-9,.9-3.9-1.1-6.8-3.9-8.2-7.4-.3-.7-.5-1.4-.7-2.1,0,0,0,0,0-.1,0,0,0,0,0,0,1.2-1.4,2.5-2.3,4-3h0c2.7-1.3,5.8-1.6,8.8-.8h0Z"/>
      </g>
      <g>
        <path class="st5" d="M760.2,473.7c1.2,1.2,1.6,2.8,1.3,4.3,0,.1,0,.3-.1.5,0,0,0,0,0,0h0c-.6.2-1.2.3-1.8.2-1.1,0-2.2-.5-3.1-1.4s-1.5-2.5-1.3-3.9c0-.3,0-.5.2-.8,0,0,0,0,0,0,0,0,0,0,0,0,.6-.2,1.3-.3,1.9-.2h0c1.1,0,2.2.5,3,1.4h0Z"/>
        <path class="st5" d="M769.5,469.9c.4,1.6,0,3.2-1.1,4.4,0,.1-.2.2-.3.4s0,0,0,0h0c-.6-.1-1.2-.4-1.7-.7-1-.6-1.7-1.6-2-2.7-.4-1.5,0-3,.8-4.1.2-.2.3-.4.6-.6,0,0,0,0,0,0h0c.7.1,1.2.4,1.7.7h0c.9.6,1.6,1.5,1.9,2.7h0Z"/>
        <path class="st5" d="M779.4,471.3c-.4,1.6-1.6,2.8-3.1,3.2-.2,0-.3.1-.5.1,0,0,0,0,0,0h0c-.5-.4-.8-.9-1.1-1.4-.5-1-.7-2.2-.4-3.4.4-1.5,1.4-2.6,2.8-3.1.2-.1.5-.2.8-.3h0s0,0,0,0c.5.4.9,1,1.1,1.5h0c.5,1,.6,2.2.3,3.3h0Z"/>
        <path class="st5" d="M787.3,477.5c-1.2,1.2-2.8,1.6-4.3,1.2-.2,0-.3,0-.5-.1,0,0,0,0,0,0h0c-.2-.6-.3-1.2-.2-1.8,0-1.1.5-2.2,1.4-3.1,1.1-1.1,2.5-1.5,3.9-1.3.3,0,.5,0,.8.2,0,0,0,0,0,0,0,0,0,0,0,0,.2.6.3,1.3.2,1.9h0c0,1.1-.5,2.2-1.4,3h0Z"/>
        <path class="st5" d="M791,486.8c-1.6.4-3.2,0-4.3-1.1-.1-.1-.2-.2-.3-.3,0,0,0,0,0,0h0c.1-.6.4-1.2.7-1.7.6-1,1.6-1.7,2.8-2,1.5-.4,3,0,4.1.8.2.2.4.4.6.6,0,0,0,0,0,0h0c-.1.7-.4,1.3-.7,1.8h0c-.6.9-1.5,1.6-2.7,1.9h0Z"/>
        <path class="st5" d="M789.6,496.7c-1.6-.4-2.8-1.6-3.2-3.1,0-.1,0-.3-.1-.5,0,0,0,0,0,0h0c.4-.5.9-.9,1.5-1.1,1-.5,2.2-.7,3.4-.4,1.5.4,2.6,1.5,3.1,2.8.1.2.2.5.3.8h0s0,0,0,0c-.4.5-1,.9-1.5,1.1h0c-1,.5-2.2.6-3.3.3h0Z"/>
        <path class="st5" d="M783.4,504.6c-1.2-1.2-1.6-2.8-1.2-4.3,0-.1,0-.3.1-.5,0,0,0,0,0,0h0c.6-.2,1.2-.3,1.8-.2,1.1,0,2.2.5,3.1,1.4,1.1,1.1,1.5,2.5,1.3,3.9,0,.3,0,.5-.2.8,0,0,0,0,0,0h0c-.6.2-1.3.3-1.9.2h0c-1.1,0-2.2-.5-3-1.4h0Z"/>
        <path class="st5" d="M774.1,508.3c-.4-1.6,0-3.2,1.1-4.4,0-.1.2-.2.3-.3,0,0,0,0,0,0h0c.6.1,1.2.4,1.7.7,1,.6,1.7,1.6,2,2.8.4,1.5,0,3-.8,4.1-.2.2-.3.4-.6.6,0,0,0,0,0,0h0c-.7-.1-1.2-.4-1.7-.8h0c-.9-.6-1.6-1.6-1.9-2.7h0Z"/>
        <path class="st5" d="M764.2,506.8c.4-1.6,1.7-2.8,3.1-3.2.2,0,.3,0,.5-.1,0,0,0,0,0,0h0c.5.4.8.9,1.1,1.5.5,1,.7,2.2.3,3.4-.4,1.5-1.5,2.6-2.8,3.1-.2.1-.5.2-.8.3h0s0,0,0,0c-.5-.4-.9-1-1.1-1.5h0c-.5-1-.6-2.2-.3-3.3h0Z"/>
        <path class="st5" d="M756.3,500.6c1.2-1.1,2.8-1.6,4.3-1.2.2,0,.3,0,.5.1,0,0,0,0,0,0h0c.2.6.3,1.2.2,1.8,0,1.1-.5,2.2-1.4,3.1-1.1,1.1-2.5,1.5-3.9,1.3-.3,0-.5,0-.8-.2,0,0,0,0,0,0h0c-.2-.7-.3-1.3-.2-1.9h0c0-1.1.5-2.2,1.4-3h0Z"/>
        <path class="st5" d="M752.6,491.2c1.6-.4,3.2,0,4.3,1.1.1.1.2.2.3.3,0,0,0,0,0,0h0c-.1.6-.4,1.2-.7,1.7-.6.9-1.6,1.7-2.8,2-1.5.4-3,0-4.1-.9-.2-.2-.4-.4-.6-.6,0,0,0,0,0,0h0c.1-.7.4-1.3.8-1.8h0c.6-.9,1.6-1.6,2.7-1.9h0Z"/>
        <path class="st5" d="M754.1,481.3c1.6.5,2.8,1.7,3.2,3.1,0,.1,0,.3.1.5,0,0,0,0,0,0h0c-.4.5-.9.8-1.5,1.1-1,.5-2.2.6-3.4.3-1.5-.4-2.6-1.5-3.1-2.8-.1-.2-.2-.5-.3-.8h0s0,0,0,0c.4-.5,1-.9,1.5-1.1h0c1-.5,2.2-.6,3.3-.3h0Z"/>
      </g>
    </g>
  </g>
</svg>